<?xml version="1.0" encoding="utf-8"?>
<!-- Generator: Adobe Illustrator 24.0.0, SVG Export Plug-In . SVG Version: 6.00 Build 0)  -->
<svg version="1.1" id="Layer_1" xmlns="http://www.w3.org/2000/svg" xmlns:xlink="http://www.w3.org/1999/xlink" x="0px" y="0px"
	 viewBox="0 0 128 128" enable-background="new 0 0 128 128" xml:space="preserve">
<g>
	<path fill="#E6E7E8" d="M114.435,86.246C114.435,86.246,114.435,86.246,114.435,86.246c-2.81-1.622-6.332-0.896-8.306,1.555
		l-3.773-2.178c3.278-5.979,5.146-12.837,5.146-20.123s-1.868-14.144-5.146-20.123l3.772-2.178c1.256,1.56,3.138,2.424,5.068,2.424
		c1.102,0,2.218-0.28,3.239-0.87c3.104-1.792,4.171-5.775,2.379-8.879c-0.868-1.503-2.27-2.579-3.947-3.029
		c-1.675-0.449-3.429-0.218-4.932,0.649c0,0,0,0,0,0c-1.504,0.868-2.579,2.27-3.028,3.946c-0.362,1.35-0.276,2.746,0.221,4.025
		l-3.774,2.179c-7.223-11.805-20.11-19.773-34.852-20.121v-4.361c3.11-0.483,5.5-3.172,5.5-6.415c0-3.584-2.916-6.5-6.5-6.5
		s-6.5,2.916-6.5,6.5c0,3.243,2.39,5.931,5.5,6.415v4.361c-14.741,0.347-27.629,8.316-34.852,20.121l-3.776-2.18
		c1.136-2.935,0.003-6.349-2.806-7.971c-3.103-1.791-7.087-0.725-8.879,2.379c-1.792,3.104-0.725,7.087,2.379,8.879
		c1.021,0.589,2.137,0.869,3.239,0.869c1.93,0,3.811-0.864,5.068-2.424l3.772,2.178c-3.278,5.979-5.146,12.837-5.146,20.123
		s1.868,14.144,5.146,20.123l-3.773,2.178c-1.973-2.451-5.497-3.177-8.305-1.556c-3.104,1.792-4.171,5.775-2.379,8.879
		c1.203,2.083,3.392,3.249,5.641,3.249c1.102,0,2.218-0.28,3.239-0.87c2.808-1.622,3.941-5.035,2.805-7.97l3.776-2.18
		c7.223,11.805,20.11,19.773,34.852,20.121v4.361c-3.11,0.483-5.5,3.172-5.5,6.415c0,3.584,2.916,6.5,6.5,6.5s6.5-2.916,6.5-6.5
		c0-3.243-2.39-5.931-5.5-6.415v-4.361c14.742-0.347,27.629-8.316,34.852-20.121l3.774,2.179c-0.497,1.279-0.583,2.675-0.221,4.025
		c0.449,1.677,1.524,3.079,3.028,3.946c1.001,0.579,2.112,0.874,3.239,0.874c0.564,0,1.133-0.074,1.692-0.224
		c1.678-0.45,3.079-1.525,3.947-3.029C118.606,92.021,117.538,88.038,114.435,86.246z"/>
	<g>
		<circle fill="#FFD7E5" cx="61.501" cy="61.5" r="41"/>
		<g>
			<path fill="#0089EF" d="M87.501,84.979h-52c-2.209,0-4-1.791-4-4V47.509c0-2.209,1.791-4,4-4h52c2.209,0,4,1.791,4,4v33.471
				C91.501,83.189,89.71,84.979,87.501,84.979z"/>
			<path fill="#6DC9F7" d="M85.501,66.137h-48c-3.314,0-6-2.686-6-6V47.509c0-2.209,1.791-4,4-4h52c2.209,0,4,1.791,4,4v12.628
				C91.501,63.451,88.815,66.137,85.501,66.137z"/>
			<path fill="#FFFFFF" d="M87.501,43.509h-52c-2.209,0-4,1.791-4,4v3c0-2.209,1.791-4,4-4h52c2.209,0,4,1.791,4,4v-3
				C91.501,45.3,89.71,43.509,87.501,43.509z"/>
			<g>
				<path fill="#0089EF" d="M51.685,43.509v-2.647c0-0.365-0.296-0.662-0.662-0.662h-5.515c-0.365,0-0.662,0.296-0.662,0.662v2.647
					H51.685z"/>
				<path fill="#0089EF" d="M78.156,43.509v-2.647c0-0.365-0.296-0.662-0.662-0.662h-5.515c-0.365,0-0.662,0.296-0.662,0.662v2.647
					H78.156z"/>
			</g>
			<path fill="#D4FBFF" d="M46.501,35.991V40.2h3.529v-2.665c0-1.096,0.889-1.985,1.985-1.985h18.971
				c1.096,0,1.985,0.889,1.985,1.985V40.2h3.529v-4.209c0-2.193-1.778-3.971-3.971-3.971H50.472
				C48.279,32.02,46.501,33.798,46.501,35.991z"/>
			<g>
				<path fill="#D4FBFF" d="M45.814,68.762h-1.715c-1.105,0-2-0.895-2-2v-4.461h5.715v4.461
					C47.814,67.867,46.919,68.762,45.814,68.762z"/>
				<path fill="#D4FBFF" d="M78.903,68.762h-1.715c-1.105,0-2-0.895-2-2v-4.461h5.715v4.461
					C80.903,67.867,80.007,68.762,78.903,68.762z"/>
			</g>
		</g>
		<g>
			<circle fill="#FA759E" cx="61.501" cy="8.75" r="5.5"/>
			<circle fill="#FA759E" cx="61.501" cy="114.25" r="5.5"/>
		</g>
		<g>
			<circle fill="#FA759E" cx="15.818" cy="87.875" r="5.5"/>
			<circle fill="#FA759E" cx="107.184" cy="35.125" r="5.5"/>
		</g>
		<g>
			<circle fill="#FA759E" cx="107.184" cy="87.875" r="5.5"/>
			<g>
				<circle fill="#FA759E" cx="15.818" cy="35.125" r="5.5"/>
				<g>
					<path fill="#3A2C60" d="M71.317,83.979h-7.733c-0.552,0-1,0.448-1,1s0.448,1,1,1h7.733c0.553,0,1-0.448,1-1
						S71.87,83.979,71.317,83.979z"/>
					<path fill="#3A2C60" d="M87.501,42.509h-8.346v-1.647c0-0.914-0.741-1.657-1.654-1.661v-3.21c0-2.741-2.229-4.97-4.971-4.97
						H50.472c-2.741,0-4.971,2.229-4.971,4.97v3.21c-0.913,0.004-1.654,0.747-1.654,1.661v1.647h-8.346c-2.757,0-5,2.243-5,5v33.471
						c0,2.757,2.243,5,5,5h24c0.552,0,1-0.448,1-1s-0.448-1-1-1h-24c-1.654,0-3-1.346-3-3V65.027c1.272,1.3,3.042,2.11,5,2.11h3.636
						c0.187,1.476,1.436,2.625,2.962,2.625h1.715c1.526,0,2.775-1.149,2.962-2.625h25.449c0.187,1.476,1.436,2.625,2.962,2.625
						h1.716c1.526,0,2.775-1.149,2.962-2.625h3.636c1.958,0,3.728-0.81,5-2.111v15.953c0,1.654-1.346,3-3,3H75.187
						c-0.553,0-1,0.448-1,1s0.447,1,1,1h12.313c2.757,0,5-2.243,5-5V47.509C92.501,44.752,90.258,42.509,87.501,42.509z
						 M51.03,39.201v-1.666c0-0.543,0.442-0.985,0.985-0.985h18.971c0.543,0,0.985,0.442,0.985,0.985v1.666
						c-0.912,0.004-1.654,0.748-1.654,1.661v1.647H52.685v-1.647C52.685,39.948,51.943,39.205,51.03,39.201z M72.317,42.509V41.2
						h4.838v1.309H72.317z M47.501,35.991c0-1.638,1.333-2.97,2.971-2.97H72.53c1.638,0,2.971,1.333,2.971,2.97V39.2h-1.529v-1.666
						c0-1.646-1.339-2.985-2.985-2.985H52.016c-1.646,0-2.985,1.339-2.985,2.985V39.2h-1.529V35.991z M45.847,41.2h4.838v1.309
						h-4.838V41.2z M46.814,66.762c0,0.551-0.449,1-1,1h-1.715c-0.551,0-1-0.449-1-1v-3.461h3.715V66.762z M79.903,66.762
						c0,0.551-0.448,1-1,1h-1.716c-0.552,0-1-0.449-1-1v-3.461h3.716V66.762z M85.501,65.137h-3.598v-1.836h1.422
						c0.553,0,1-0.448,1-1s-0.447-1-1-1H72.765c-0.553,0-1,0.448-1,1s0.447,1,1,1h1.423v1.836H48.814v-1.836h1.423
						c0.552,0,1-0.448,1-1s-0.448-1-1-1H39.676c-0.552,0-1,0.448-1,1s0.448,1,1,1h1.423v1.836h-3.598c-2.757,0-5-2.243-5-5V47.509
						c0-1.654,1.346-3,3-3h52c1.654,0,3,1.346,3,3v12.628C90.501,62.894,88.258,65.137,85.501,65.137z"/>
					<path fill="#3A2C60" d="M110.435,82.246C110.435,82.246,110.435,82.246,110.435,82.246c-2.81-1.623-6.332-0.896-8.306,1.555
						l-3.773-2.178c3.278-5.979,5.146-12.837,5.146-20.123s-1.868-14.144-5.146-20.123l3.772-2.178
						c0.858,1.07,2.024,1.842,3.375,2.204c0.56,0.15,1.128,0.224,1.692,0.224c1.127,0,2.238-0.295,3.24-0.874
						c3.104-1.792,4.171-5.775,2.379-8.879c-0.868-1.503-2.27-2.579-3.947-3.028c-1.675-0.448-3.429-0.219-4.932,0.649c0,0,0,0,0,0
						c-1.504,0.868-2.579,2.27-3.028,3.946c-0.362,1.35-0.276,2.746,0.221,4.024l-3.774,2.179
						c-7.223-11.805-20.11-19.773-34.852-20.12v-4.361c3.11-0.483,5.5-3.172,5.5-6.415c0-3.584-2.916-6.5-6.5-6.5
						s-6.5,2.916-6.5,6.5c0,3.243,2.39,5.931,5.5,6.415v4.361c-14.741,0.347-27.629,8.316-34.852,20.121l-3.775-2.179
						c0.497-1.278,0.584-2.675,0.222-4.024c-0.449-1.677-1.525-3.079-3.028-3.947v0c-3.104-1.793-7.086-0.726-8.879,2.378
						c-1.792,3.104-0.724,7.087,2.379,8.879c1.021,0.589,2.137,0.87,3.239,0.87c1.929,0,3.812-0.864,5.068-2.425l3.772,2.178
						c-3.278,5.979-5.146,12.837-5.146,20.123s1.868,14.144,5.146,20.123l-3.774,2.178c-1.974-2.452-5.497-3.176-8.305-1.556
						c0,0,0,0,0,0c-3.104,1.792-4.171,5.775-2.379,8.879c1.203,2.083,3.392,3.249,5.641,3.249c1.102,0,2.218-0.28,3.239-0.869
						c1.503-0.868,2.579-2.27,3.028-3.947c0.362-1.35,0.275-2.746-0.222-4.024l3.775-2.179c7.223,11.805,20.11,19.773,34.852,20.121
						v4.361c-3.11,0.483-5.5,3.172-5.5,6.415c0,3.584,2.916,6.5,6.5,6.5s6.5-2.916,6.5-6.5c0-3.243-2.39-5.931-5.5-6.415v-4.361
						c14.742-0.347,27.629-8.316,34.852-20.121l3.776,2.18c-1.136,2.935-0.002,6.349,2.806,7.971
						c1.001,0.578,2.113,0.874,3.239,0.874c0.564,0,1.133-0.074,1.692-0.225c1.678-0.449,3.079-1.525,3.947-3.028
						C114.605,88.021,113.538,84.039,110.435,82.246z M102.838,33.96c0.311-1.161,1.056-2.131,2.097-2.732c0,0,0,0,0,0
						c0.693-0.4,1.463-0.604,2.242-0.604c0.391,0,0.784,0.051,1.172,0.155c1.161,0.312,2.132,1.056,2.732,2.097
						c1.24,2.149,0.502,4.907-1.646,6.147c-1.04,0.602-2.252,0.762-3.415,0.45c-1.161-0.311-2.132-1.056-2.732-2.097
						C102.686,36.333,102.526,35.121,102.838,33.96z M13.568,39.021c-2.149-1.24-2.888-3.998-1.647-6.147
						c0.833-1.442,2.348-2.249,3.904-2.249c0.763,0,1.536,0.194,2.243,0.603c1.041,0.601,1.786,1.571,2.097,2.732
						s0.151,2.374-0.45,3.415C18.474,39.523,15.716,40.263,13.568,39.021z M20.165,89.04c-0.311,1.161-1.056,2.131-2.097,2.732
						c-2.149,1.242-4.907,0.501-6.147-1.647c-1.241-2.148-0.501-4.906,1.647-6.147c2.147-1.241,4.906-0.501,6.147,1.647
						C20.316,86.666,20.476,87.879,20.165,89.04z M57.001,8.75c0-2.481,2.019-4.5,4.5-4.5s4.5,2.019,4.5,4.5s-2.019,4.5-4.5,4.5
						S57.001,11.231,57.001,8.75z M66.001,114.25c0,2.481-2.019,4.5-4.5,4.5s-4.5-2.019-4.5-4.5s2.019-4.5,4.5-4.5
						S66.001,111.769,66.001,114.25z M61.501,101.5c-22.056,0-40-17.944-40-40s17.944-40,40-40c22.056,0,40,17.944,40,40
						S83.557,101.5,61.501,101.5z M111.081,90.125c-0.601,1.041-1.571,1.786-2.732,2.097c-1.162,0.312-2.373,0.151-3.414-0.45
						s-1.786-1.571-2.097-2.732c-0.312-1.161-0.151-2.374,0.449-3.415c0.832-1.442,2.348-2.249,3.904-2.249
						c0.764,0,1.536,0.194,2.243,0.602C111.583,85.219,112.321,87.977,111.081,90.125z"/>
				</g>
			</g>
		</g>
	</g>
</g>
</svg>
