<?xml version="1.0" encoding="utf-8"?>
<!-- Generator: Adobe Illustrator 24.0.0, SVG Export Plug-In . SVG Version: 6.00 Build 0)  -->
<svg version="1.1" id="Layer_1" xmlns="http://www.w3.org/2000/svg" xmlns:xlink="http://www.w3.org/1999/xlink" x="0px" y="0px"
	 viewBox="0 0 256 256" enable-background="new 0 0 256 256" xml:space="preserve">
<g>
	<g>
		<rect x="62.632" y="21.673" fill="#63BCE7" width="165.265" height="205.894"/>
		<g>
			<rect x="62.632" y="21.674" fill="#6377E7" width="12.632" height="205.894"/>
		</g>
		<g>
			<rect x="215.266" y="21.674" fill="#63E2E7" width="12.632" height="205.894"/>
		</g>
		<rect x="62.632" y="93.465" fill="#CECECE" width="165.265" height="134.103"/>
		<g>
			<rect x="215.266" y="93.465" fill="#E2E2E2" width="12.632" height="134.103"/>
		</g>
		<rect x="62.632" y="93.465" fill="#F46275" width="67.074" height="134.103"/>
		<g>
			<rect x="62.632" y="93.465" fill="#F43075" width="12.632" height="134.103"/>
		</g>
		<g>
			<circle fill="#F8AF23" cx="98.055" cy="61.814" r="44.345"/>
			<circle fill="#CECECE" cx="98.055" cy="61.814" r="31.645"/>
			<path fill="#F8AF23" d="M34.902,180.455L34.902,180.455c-6.232-3.295-8.612-11.018-5.317-17.249l21.26-39.416
				c3.295-6.232,11.018-8.612,17.249-5.317l0,0c6.231,3.295,8.612,11.018,5.317,17.249l-21.26,39.416
				C48.856,181.37,41.133,183.751,34.902,180.455z"/>
		</g>
		<g>
			<circle fill="#707070" cx="98.055" cy="51.366" r="10.738"/>
			<path fill="#63BCE7" d="M112.929,83H83.181v-6.022c0-8.215,6.659-14.874,14.874-14.874h0c8.215,0,14.874,6.659,14.874,14.874V83z
				"/>
		</g>
		<rect x="145.514" y="109.745" fill="#F8AF23" width="66.575" height="12.3"/>
		<rect x="145.514" y="134.425" fill="#F8AF23" width="66.575" height="12.3"/>
		<rect x="145.514" y="159.106" fill="#F8AF23" width="66.575" height="12.3"/>
		<circle fill="#63BCE7" cx="189.845" cy="189.515" r="38.053"/>
		<g>
			<path fill="#63E2E7" d="M189.845,151.463c-2.153,0-4.261,0.188-6.316,0.531c18.009,3.01,31.737,18.658,31.737,37.521
				s-13.728,34.511-31.737,37.521c2.055,0.344,4.163,0.531,6.316,0.531c21.016,0,38.053-17.037,38.053-38.053
				S210.861,151.463,189.845,151.463z"/>
		</g>
		<g>
			<path fill="#F8AF23" d="M181.711,210.325c-0.012,0-0.023,0-0.034,0c-1.912-0.009-3.741-0.783-5.08-2.147l-11.023-11.235
				c-2.771-2.825-2.728-7.361,0.096-10.132c2.826-2.772,7.362-2.727,10.132,0.096l5.957,6.072l22.176-22.175
				c2.798-2.798,7.335-2.798,10.133,0c2.798,2.798,2.798,7.335,0,10.133l-27.291,27.29
				C185.434,209.571,183.611,210.325,181.711,210.325z"/>
		</g>
	</g>
	<g>
		<path fill="#3F3679" d="M82.562,91.114c4.927,2.605,10.218,3.839,15.438,3.839c11.898,0,23.418-6.417,29.356-17.646
			c4.139-7.826,4.981-16.796,2.374-25.256c-2.608-8.46-8.354-15.399-16.181-19.538c-7.827-4.138-16.796-4.981-25.257-2.374
			c-8.46,2.608-15.398,8.354-19.537,16.181C60.212,62.476,66.405,82.571,82.562,91.114z M71.407,47.722
			c3.764-7.118,10.074-12.344,17.769-14.716c2.933-0.904,5.932-1.352,8.916-1.352c4.846,0,9.649,1.182,14.055,3.511
			c7.118,3.764,12.344,10.074,14.716,17.769s1.604,15.852-2.159,22.97c-7.771,14.694-26.048,20.325-40.739,12.557
			c-7.118-3.764-12.345-10.074-14.716-17.769C66.876,62.998,67.643,54.84,71.407,47.722z"/>
		<path fill="#3F3679" d="M83.182,84.5h29.747c0.828,0,1.5-0.671,1.5-1.5v-6.022c0-6.808-4.179-12.655-10.105-15.121
			c3.568-2.141,5.969-6.036,5.969-10.491c0-6.748-5.49-12.238-12.238-12.238s-12.237,5.49-12.237,12.238
			c0,4.455,2.4,8.35,5.968,10.491c-5.925,2.466-10.104,8.313-10.104,15.121V83C81.682,83.828,82.354,84.5,83.182,84.5z
			 M88.817,51.366c0-5.094,4.144-9.238,9.237-9.238s9.238,4.144,9.238,9.238s-4.145,9.238-9.238,9.238S88.817,56.46,88.817,51.366z
			 M84.682,76.978c0-7.374,5.999-13.374,13.373-13.374s13.374,6,13.374,13.374V81.5H84.682V76.978z"/>
		<path fill="#3F3679" d="M158.669,45.385h50.315c0.828,0,1.5-0.671,1.5-1.5s-0.672-1.5-1.5-1.5h-50.315c-0.828,0-1.5,0.671-1.5,1.5
			S157.841,45.385,158.669,45.385z"/>
		<path fill="#3F3679" d="M158.669,59.069h50.315c0.828,0,1.5-0.671,1.5-1.5s-0.672-1.5-1.5-1.5h-50.315c-0.828,0-1.5,0.671-1.5,1.5
			S157.841,59.069,158.669,59.069z"/>
		<path fill="#3F3679" d="M158.669,72.753h50.315c0.828,0,1.5-0.671,1.5-1.5s-0.672-1.5-1.5-1.5h-50.315c-0.828,0-1.5,0.671-1.5,1.5
			S157.841,72.753,158.669,72.753z"/>
		<path fill="#3F3679" d="M80.842,130.542h30.654c0.828,0,1.5-0.671,1.5-1.5s-0.672-1.5-1.5-1.5H80.842c-0.828,0-1.5,0.671-1.5,1.5
			S80.014,130.542,80.842,130.542z"/>
		<path fill="#3F3679" d="M111.496,140.489H80.842c-0.828,0-1.5,0.671-1.5,1.5s0.672,1.5,1.5,1.5h30.654c0.828,0,1.5-0.671,1.5-1.5
			S112.324,140.489,111.496,140.489z"/>
		<path fill="#3F3679" d="M111.496,153.437H80.842c-0.828,0-1.5,0.671-1.5,1.5s0.672,1.5,1.5,1.5h30.654c0.828,0,1.5-0.671,1.5-1.5
			S112.324,153.437,111.496,153.437z"/>
		<path fill="#3F3679" d="M111.496,166.384H80.842c-0.828,0-1.5,0.671-1.5,1.5s0.672,1.5,1.5,1.5h30.654c0.828,0,1.5-0.671,1.5-1.5
			S112.324,166.384,111.496,166.384z"/>
		<path fill="#3F3679" d="M111.496,179.331H80.842c-0.828,0-1.5,0.671-1.5,1.5s0.672,1.5,1.5,1.5h30.654c0.828,0,1.5-0.671,1.5-1.5
			S112.324,179.331,111.496,179.331z"/>
		<path fill="#3F3679" d="M111.496,192.278H80.842c-0.828,0-1.5,0.671-1.5,1.5s0.672,1.5,1.5,1.5h30.654c0.828,0,1.5-0.671,1.5-1.5
			S112.324,192.278,111.496,192.278z"/>
		<path fill="#3F3679" d="M111.496,205.226H80.842c-0.828,0-1.5,0.671-1.5,1.5s0.672,1.5,1.5,1.5h30.654c0.828,0,1.5-0.671,1.5-1.5
			S112.324,205.226,111.496,205.226z"/>
		<path fill="#3F3679" d="M212.09,108.245h-66.575c-0.828,0-1.5,0.671-1.5,1.5v12.3c0,0.829,0.672,1.5,1.5,1.5h66.575
			c0.828,0,1.5-0.671,1.5-1.5v-12.3C213.59,108.916,212.918,108.245,212.09,108.245z M210.59,120.545h-63.575v-9.3h63.575V120.545z"
			/>
		<path fill="#3F3679" d="M212.09,132.925h-66.575c-0.828,0-1.5,0.671-1.5,1.5v12.301c0,0.829,0.672,1.5,1.5,1.5h66.575
			c0.828,0,1.5-0.671,1.5-1.5v-12.301C213.59,133.597,212.918,132.925,212.09,132.925z M210.59,145.226h-63.575v-9.301h63.575
			V145.226z"/>
		<path fill="#3F3679" d="M164.504,197.994l11.022,11.235c1.607,1.639,3.847,2.585,6.15,2.597h0.034
			c2.315,0,4.491-0.901,6.127-2.538l27.291-27.29c3.378-3.378,3.378-8.875,0-12.254c-1.637-1.637-3.813-2.538-6.127-2.538
			c-2.314,0-4.49,0.901-6.127,2.538l-21.105,21.104l-4.896-4.991c-3.347-3.408-8.842-3.462-12.253-0.116
			c-1.652,1.621-2.574,3.788-2.597,6.103C162.002,194.157,162.883,196.342,164.504,197.994z M166.722,187.882
			c1.101-1.08,2.534-1.618,3.967-1.618c1.468,0,2.937,0.566,4.044,1.694l5.957,6.072c0.28,0.286,0.663,0.448,1.063,0.45
			c0.002,0,0.005,0,0.007,0c0.397,0,0.779-0.158,1.061-0.439l22.176-22.175c1.07-1.07,2.492-1.659,4.006-1.659
			c1.513,0,2.936,0.589,4.006,1.659c2.208,2.209,2.208,5.803,0,8.012l-27.291,27.29c-1.055,1.055-2.515,1.659-4.006,1.659v1.5
			l-0.027-1.5c-1.501-0.007-2.965-0.626-4.017-1.697l-11.022-11.235c-1.06-1.081-1.635-2.509-1.621-4.021
			C165.038,190.358,165.641,188.941,166.722,187.882z"/>
		<path fill="#3F3679" d="M27.323,237.041H9.32c-0.828,0-1.5,0.671-1.5,1.5s0.672,1.5,1.5,1.5h18.003c0.828,0,1.5-0.671,1.5-1.5
			S28.151,237.041,27.323,237.041z"/>
		<path fill="#3F3679" d="M246.68,237.041h-18.003c-0.828,0-1.5,0.671-1.5,1.5s0.672,1.5,1.5,1.5h18.003c0.828,0,1.5-0.671,1.5-1.5
			S247.508,237.041,246.68,237.041z"/>
		<path fill="#3F3679" d="M218.479,237.041H37.521c-0.828,0-1.5,0.671-1.5,1.5s0.672,1.5,1.5,1.5h180.959c0.828,0,1.5-0.671,1.5-1.5
			S219.308,237.041,218.479,237.041z"/>
		<path fill="#3F3679" d="M9.32,229.068h53.313h165.265h18.782c0.828,0,1.5-0.671,1.5-1.5s-0.672-1.5-1.5-1.5h-17.282V93.465V21.673
			c0-0.829-0.672-1.5-1.5-1.5H117.253c-0.007,0-0.013,0.002-0.02,0.002c-12.526-5.778-26.489-5.404-38.294,0
			c-0.005,0-0.01-0.002-0.015-0.002H62.633c-0.828,0-1.5,0.671-1.5,1.5v12.909c0,0.017,0.004,0.033,0.005,0.049
			c-1.324,1.801-2.536,3.717-3.611,5.751c-8.478,16.033-6.461,34.869,3.606,48.598v4.484v22.073
			c-1.076,0.077-2.151,0.263-3.207,0.589c-3.641,1.122-6.626,3.595-8.401,6.952l-21.266,39.427
			c-3.676,6.953-1.011,15.6,5.942,19.277c2.084,1.102,4.357,1.661,6.649,1.661c1.412,0,2.832-0.212,4.22-0.64
			c3.641-1.122,6.626-3.595,8.401-6.952l7.661-14.204v64.421H9.32c-0.828,0-1.5,0.671-1.5,1.5S8.492,229.068,9.32,229.068z
			 M155.518,169.907h-8.503v-9.3h15.877C159.992,163.311,157.503,166.445,155.518,169.907z M189.845,152.963
			c20.155,0,36.553,16.397,36.553,36.552c0,20.155-16.397,36.553-36.553,36.553c-20.154,0-36.552-16.397-36.552-36.553
			C153.293,169.36,169.69,152.963,189.845,152.963z M226.397,226.068h-21.458c9.687-4.015,17.443-11.771,21.458-21.458V226.068z
			 M189.845,149.963c-8.731,0-16.805,2.849-23.355,7.659c-0.051-0.005-0.1-0.015-0.151-0.015h-20.823c-0.828,0-1.5,0.671-1.5,1.5
			v12.3c0,0.829,0.672,1.5,1.5,1.5h8.447c-2.349,5.054-3.669,10.678-3.669,16.608c0,16.466,10.116,30.608,24.458,36.553h-43.545
			V94.965h95.191v79.456C220.453,160.079,206.311,149.963,189.845,149.963z M226.397,91.965h-93.8
			c2.295-2.639,4.31-5.552,5.986-8.721c5.725-10.825,6.891-23.232,3.283-34.935c-3.237-10.505-9.981-19.303-19.156-25.136h103.687
			V91.965z M64.133,23.173h9.29c-3.39,2.153-6.525,4.754-9.29,7.794V23.173z M60.179,41.785
			c7.677-14.518,22.566-22.811,37.948-22.811c6.746,0,13.589,1.597,19.956,4.963C128.2,29.287,135.629,38.257,139,49.193
			s2.281,22.531-3.069,32.648c-5.35,10.117-14.318,17.545-25.255,20.917c-10.935,3.37-22.53,2.283-32.649-3.069
			C57.142,88.646,49.135,62.67,60.179,41.785z M75.316,101.607l-7.885,14.911c-1.068-0.43-2.175-0.713-3.298-0.873v-22.18v-0.813
			C67.289,96.13,71.037,99.164,75.316,101.607z M50.825,174.438c-1.406,2.66-3.764,4.612-6.639,5.499
			c-2.874,0.886-5.924,0.6-8.583-0.807c-5.49-2.903-7.596-9.732-4.698-15.211l21.266-39.427c1.406-2.66,3.764-4.612,6.639-5.499
			c2.874-0.886,5.924-0.601,8.583,0.807c2.66,1.406,4.613,3.764,5.499,6.64c0.887,2.875,0.6,5.923-0.801,8.572L50.825,174.438z
			 M64.133,156.085l10.604-19.661c1.781-3.368,2.144-7.228,1.021-10.869c-0.973-3.159-2.966-5.821-5.676-7.635l7.888-14.917
			c6.329,3.091,13.146,4.678,20.028,4.678c4.537,0,9.101-0.681,13.56-2.056c6.24-1.923,11.873-5.091,16.647-9.261v129.704H64.133
			V156.085z"/>
	</g>
</g>
</svg>
