<svg xmlns="http://www.w3.org/2000/svg" version="1.1" xmlns:xlink="http://www.w3.org/1999/xlink" xmlns:svgjs="http://svgjs.dev/svgjs" width="2000" height="1247" viewBox="0 0 2000 1247"><g transform="matrix(1,0,0,1,-1.2121212121212466,0.504858299595071)"><svg viewBox="0 0 396 247" data-background-color="#ffffff" preserveAspectRatio="xMidYMid meet" height="1247" width="2000" xmlns="http://www.w3.org/2000/svg" xmlns:xlink="http://www.w3.org/1999/xlink"><g id="tight-bounds" transform="matrix(1,0,0,1,0.2400000000000091,-0.09999999999999432)"><svg viewBox="0 0 395.52 247.2" height="247.2" width="395.52"><g><svg></svg></g><g><svg viewBox="0 0 395.52 247.2" height="247.2" width="395.52"><g transform="matrix(1,0,0,1,75.54432,55.898894980022035)"><svg viewBox="0 0 244.43135999999998 135.40221003995592" height="135.40221003995592" width="244.43135999999998"><g><svg viewBox="0 0 244.43135999999998 135.40221003995592" height="135.40221003995592" width="244.43135999999998"><g><svg viewBox="0 0 244.43135999999998 135.40221003995592" height="135.40221003995592" width="244.43135999999998"><g><svg viewBox="0 0 244.43135999999998 135.40221003995592" height="135.40221003995592" width="244.43135999999998"><g id="textblocktransform"><svg viewBox="0 0 244.43135999999998 135.40221003995592" height="135.40221003995592" width="244.43135999999998" id="textblock"><g><svg viewBox="0 0 244.43135999999998 78.90222230248305" height="78.90222230248305" width="244.43135999999998"><g transform="matrix(1,0,0,1,0,0)"><svg width="244.43135999999998" viewBox="2.6 -37.4 132.89000000000001 42.9" height="78.90222230248305" data-palette-color="#001f3f"><path d="M14.1 5.5L11.1 5.5 11.1 0.55Q8.7 0.3 6.45-0.78 4.2-1.85 2.6-3.3L2.6-3.3 4.5-6.15Q6.1-4.75 8.03-3.78 9.95-2.8 12.25-2.8L12.25-2.8Q15.05-2.8 16.43-4.2 17.8-5.6 17.8-7.95L17.8-7.95Q17.8-9.95 16.78-11.28 15.75-12.6 14.2-13.58 12.65-14.55 10.83-15.4 9-16.25 7.45-17.35 5.9-18.45 4.88-20.03 3.85-21.6 3.85-24.05L3.85-24.05Q3.85-27.4 5.83-29.63 7.8-31.85 11.1-32.35L11.1-32.35 11.1-37.4 14.1-37.4 14.1-32.45Q16.5-32.2 18.18-31.15 19.85-30.1 21.2-28.65L21.2-28.65 19-26.2Q17.6-27.55 16.28-28.3 14.95-29.05 12.9-29.05L12.9-29.05Q10.6-29.05 9.25-27.75 7.9-26.45 7.9-24.25L7.9-24.25Q7.9-22.45 8.93-21.3 9.95-20.15 11.5-19.28 13.05-18.4 14.88-17.57 16.7-16.75 18.25-15.58 19.8-14.4 20.83-12.68 21.85-10.95 21.85-8.25L21.85-8.25Q21.85-4.65 19.78-2.35 17.7-0.05 14.1 0.45L14.1 0.45 14.1 5.5ZM35.45 0.6L35.45 0.6Q29.3 0.6 26.4-4.65L26.4-4.65 29.4-6.75Q30.5-4.8 31.9-3.93 33.3-3.05 35.05-3.05L35.05-3.05Q37.7-3.05 39-4.67 40.3-6.3 40.3-10.05L40.3-10.05 40.3-32.8 44.5-32.8 44.5-9.65Q44.5-7.55 43.97-5.68 43.45-3.8 42.37-2.4 41.3-1 39.57-0.2 37.85 0.6 35.45 0.6ZM65.44 0.6L65.44 0.6Q62.34 0.6 59.77-0.6 57.2-1.8 55.34-4.03 53.49-6.25 52.47-9.43 51.45-12.6 51.45-16.55L51.45-16.55Q51.45-20.5 52.47-23.63 53.49-26.75 55.34-28.93 57.2-31.1 59.77-32.25 62.34-33.4 65.44-33.4L65.44-33.4Q68.55-33.4 71.12-32.23 73.69-31.05 75.57-28.88 77.44-26.7 78.47-23.58 79.5-20.45 79.5-16.55L79.5-16.55Q79.5-12.6 78.47-9.43 77.44-6.25 75.57-4.03 73.69-1.8 71.12-0.6 68.55 0.6 65.44 0.6ZM65.44-3.05L65.44-3.05Q67.64-3.05 69.42-4 71.19-4.95 72.47-6.73 73.75-8.5 74.44-10.98 75.14-13.45 75.14-16.55L75.14-16.55Q75.14-19.6 74.44-22.05 73.75-24.5 72.47-26.2 71.19-27.9 69.42-28.83 67.64-29.75 65.44-29.75L65.44-29.75Q63.24-29.75 61.47-28.83 59.7-27.9 58.42-26.2 57.14-24.5 56.45-22.05 55.74-19.6 55.74-16.55L55.74-16.55Q55.74-13.45 56.45-10.98 57.14-8.5 58.42-6.73 59.7-4.95 61.47-4 63.24-3.05 65.44-3.05ZM96.99 0L86.54 0 86.54-32.8 96.29-32.8Q98.79-32.8 100.87-32.35 102.94-31.9 104.42-30.95 105.89-30 106.72-28.48 107.54-26.95 107.54-24.8L107.54-24.8Q107.54-22.35 106.32-20.38 105.09-18.4 102.74-17.65L102.74-17.65 102.74-17.45Q105.74-16.9 107.59-14.95 109.44-13 109.44-9.6L109.44-9.6Q109.44-7.2 108.54-5.4 107.64-3.6 105.99-2.4 104.34-1.2 102.04-0.6 99.74 0 96.99 0L96.99 0ZM90.69-29.5L90.69-18.85 95.54-18.85Q99.74-18.85 101.59-20.3 103.44-21.75 103.44-24.25L103.44-24.25Q103.44-27.1 101.52-28.3 99.59-29.5 95.74-29.5L95.74-29.5 90.69-29.5ZM90.69-15.65L90.69-3.3 96.39-3.3Q100.64-3.3 102.99-4.88 105.34-6.45 105.34-9.75L105.34-9.75Q105.34-12.8 103.04-14.23 100.74-15.65 96.39-15.65L96.39-15.65 90.69-15.65ZM124.34 0.6L124.34 0.6Q120.89 0.6 117.94-0.7 114.99-2 112.84-4.25L112.84-4.25 115.34-7.15Q117.09-5.3 119.47-4.17 121.84-3.05 124.39-3.05L124.39-3.05Q127.64-3.05 129.44-4.53 131.24-6 131.24-8.4L131.24-8.4Q131.24-9.65 130.81-10.53 130.39-11.4 129.67-12.03 128.94-12.65 127.94-13.15 126.94-13.65 125.79-14.2L125.79-14.2 121.09-16.25Q119.94-16.75 118.74-17.45 117.54-18.15 116.59-19.15 115.64-20.15 115.04-21.53 114.44-22.9 114.44-24.7L114.44-24.7Q114.44-26.55 115.22-28.15 115.99-29.75 117.37-30.93 118.74-32.1 120.62-32.75 122.49-33.4 124.74-33.4L124.74-33.4Q127.69-33.4 130.19-32.27 132.69-31.15 134.44-29.35L134.44-29.35 132.19-26.65Q130.69-28.1 128.87-28.93 127.04-29.75 124.74-29.75L124.74-29.75Q121.99-29.75 120.32-28.48 118.64-27.2 118.64-24.95L118.64-24.95Q118.64-23.75 119.12-22.93 119.59-22.1 120.39-21.48 121.19-20.85 122.14-20.38 123.09-19.9 124.09-19.5L124.09-19.5 128.74-17.5Q130.14-16.9 131.39-16.13 132.64-15.35 133.54-14.33 134.44-13.3 134.97-11.93 135.49-10.55 135.49-8.75L135.49-8.75Q135.49-6.8 134.72-5.1 133.94-3.4 132.49-2.13 131.04-0.85 128.99-0.13 126.94 0.6 124.34 0.6Z" opacity="1" transform="matrix(1,0,0,1,0,0)" fill="#001f3f" class="wordmark-text-0" data-fill-palette-color="primary" id="text-0"></path></svg></g></svg></g><g transform="matrix(1,0,0,1,0,97.52914333476404)"><svg viewBox="0 0 244.43135999999998 37.87306670519187" height="37.87306670519187" width="244.43135999999998"><g transform="matrix(1,0,0,1,0,0)"><svg width="244.43135999999998" viewBox="1.4 -37.6 308.82000000000005 47.85" height="37.87306670519187" data-palette-color="#0c3ed3"><path d="M11.1-34.8Q13.7-34.8 15.6-33.85 17.5-32.9 19.25-31L19.25-31 17.6-29.35Q16.05-30.9 14.53-31.6 13-32.3 11.1-32.3L11.1-32.3Q8.6-32.3 7.03-30.68 5.45-29.05 5.45-26.5L5.45-26.5Q5.45-23.95 6.88-22.38 8.3-20.8 11.95-19.45L11.95-19.45Q16.15-17.85 18.13-15.6 20.1-13.35 20.1-9.35L20.1-9.35Q20.1-6.6 18.9-4.35 17.7-2.1 15.53-0.78 13.35 0.55 10.55 0.55L10.55 0.55Q7.75 0.55 5.53-0.55 3.3-1.65 1.4-3.75L1.4-3.75 3.05-5.4Q4.8-3.7 6.53-2.83 8.25-1.95 10.5-1.95L10.5-1.95Q13.5-1.95 15.3-3.95 17.1-5.95 17.1-9.25L17.1-9.25Q17.1-12.2 15.7-13.9 14.3-15.6 10.6-17.05L10.6-17.05Q6.3-18.7 4.42-20.88 2.55-23.05 2.55-26.4L2.55-26.4Q2.55-28.65 3.65-30.58 4.75-32.5 6.7-33.65 8.65-34.8 11.1-34.8L11.1-34.8ZM40.75-2.9L41.9-1.1Q39.8 0.55 37.25 0.55L37.25 0.55Q34.7 0.55 33.23-1.05 31.75-2.65 31.75-5.35L31.75-5.35 31.75-23.85 28.25-23.85 28.25-26.15 31.75-26.15 31.75-32.4 34.55-32.75 34.55-26.15 40.05-26.15 39.7-23.85 34.55-23.85 34.55-5.35Q34.55-3.7 35.3-2.78 36.05-1.85 37.55-1.85L37.55-1.85Q39.15-1.85 40.75-2.9L40.75-2.9ZM65.05-5Q65.05-3.4 65.48-2.63 65.9-1.85 66.8-1.4L66.8-1.4 66.2 0.55Q64.6 0.15 63.75-0.8 62.9-1.75 62.65-3.55L62.65-3.55Q60.3 0.55 56.1 0.55L56.1 0.55Q53 0.55 51.15-1.6 49.3-3.75 49.3-7.25L49.3-7.25Q49.3-11.35 51.78-13.53 54.25-15.7 58.85-15.7L58.85-15.7 62.3-15.7 62.3-18.7Q62.3-21.55 61.18-22.95 60.05-24.35 57.65-24.35L57.65-24.35Q54.9-24.35 51.65-22.95L51.65-22.95 50.85-24.95Q54.6-26.7 57.9-26.7L57.9-26.7Q61.5-26.7 63.28-24.68 65.05-22.65 65.05-18.9L65.05-18.9 65.05-5ZM56.55-1.7Q60.35-1.7 62.3-6.55L62.3-6.55 62.3-13.65 59.1-13.65Q55.6-13.65 53.93-12.1 52.25-10.55 52.25-7.35L52.25-7.35Q52.25-4.6 53.38-3.15 54.5-1.7 56.55-1.7L56.55-1.7ZM78.76-36.8L81.56-37.15 81.56 0 78.76 0 78.76-36.8ZM90.76-26.15L93.76-26.15 84.81-14.45 94.66 0 91.51 0 81.81-14.3 90.76-26.15ZM104.36-26.15L107.16-26.15 107.16 0 104.36 0 104.36-26.15ZM105.71-37.6Q106.61-37.6 107.16-37 107.71-36.4 107.71-35.5L107.71-35.5Q107.71-34.7 107.16-34.1 106.61-33.5 105.71-33.5L105.71-33.5Q104.86-33.5 104.28-34.1 103.71-34.7 103.71-35.5L103.71-35.5Q103.71-36.4 104.26-37 104.81-37.6 105.71-37.6L105.71-37.6ZM130.66-26.7Q133.51-26.7 135.08-24.68 136.66-22.65 136.66-19.15L136.66-19.15 136.66 0 133.86 0 133.86-18.8Q133.86-24.4 130.11-24.4L130.11-24.4Q126.56-24.4 123.66-18.75L123.66-18.75 123.66 0 120.86 0 120.86-26.15 123.26-26.15 123.56-21.65Q125.01-24.1 126.66-25.4 128.31-26.7 130.66-26.7L130.66-26.7ZM165.61-28.3L166.46-25.65Q164.46-24.9 160.51-24.9L160.51-24.9Q164.26-22.8 164.26-17.75L164.26-17.75Q164.26-13.75 162.14-11.45 160.01-9.15 156.31-9.15L156.31-9.15Q154.86-9.15 153.61-9.7L153.61-9.7Q151.96-8.45 151.96-6.65L151.96-6.65Q151.96-3.8 155.61-3.8L155.61-3.8 158.31-3.8Q161.81-3.8 163.81-1.98 165.81-0.15 165.81 2.75L165.81 2.75Q165.81 6.15 163.39 8.2 160.96 10.25 156.31 10.25L156.31 10.25Q151.46 10.25 149.34 8.4 147.21 6.55 147.21 2.75L147.21 2.75 149.76 2.75Q149.81 5.55 151.24 6.73 152.66 7.9 156.31 7.9L156.31 7.9Q163.01 7.9 163.01 2.9L163.01 2.9Q163.01 0.75 161.69-0.38 160.36-1.5 157.81-1.5L157.81-1.5 155.61-1.5Q152.46-1.5 150.94-2.75 149.41-4 149.41-6.05L149.41-6.05Q149.41-8.55 151.86-10.45L151.86-10.45Q148.16-12.8 148.16-17.85L148.16-17.85Q148.16-21.9 150.39-24.3 152.61-26.7 156.31-26.7L156.31-26.7Q160.11-26.7 161.94-27.08 163.76-27.45 165.61-28.3L165.61-28.3ZM156.26-24.5Q150.96-24.5 150.96-17.85L150.96-17.85Q150.96-14.75 152.39-13 153.81-11.25 156.21-11.25L156.21-11.25Q161.46-11.25 161.46-17.8L161.46-17.8Q161.46-20.95 160.16-22.73 158.86-24.5 156.26-24.5L156.26-24.5ZM201.91-2.9L203.06-1.1Q200.96 0.55 198.41 0.55L198.41 0.55Q195.86 0.55 194.39-1.05 192.91-2.65 192.91-5.35L192.91-5.35 192.91-23.85 189.41-23.85 189.41-26.15 192.91-26.15 192.91-32.4 195.71-32.75 195.71-26.15 201.21-26.15 200.86-23.85 195.71-23.85 195.71-5.35Q195.71-3.7 196.46-2.78 197.21-1.85 198.71-1.85L198.71-1.85Q200.31-1.85 201.91-2.9L201.91-2.9ZM220.07-26.7Q224.52-26.7 226.92-23.28 229.32-19.85 229.32-13.15L229.32-13.15Q229.32-6.6 226.84-3.03 224.37 0.55 220.02 0.55L220.02 0.55Q215.67 0.55 213.24-3 210.82-6.55 210.82-13.05L210.82-13.05Q210.82-19.65 213.27-23.18 215.72-26.7 220.07-26.7L220.07-26.7ZM220.07-24.3Q213.77-24.3 213.77-13.05L213.77-13.05Q213.77-1.8 220.02-1.8L220.02-1.8Q226.37-1.8 226.37-13.15L226.37-13.15Q226.37-18.9 224.77-21.6 223.17-24.3 220.07-24.3L220.07-24.3ZM241.37-36.8L244.17-37.15 244.17 0 241.37 0 241.37-36.8ZM253.37-26.15L256.37-26.15 247.42-14.45 257.27 0 254.12 0 244.42-14.3 253.37-26.15ZM282.62-14.05Q282.62-12.95 282.52-11.95L282.52-11.95 268.22-11.95Q268.42-6.55 270.1-4.2 271.77-1.85 274.67-1.85L274.67-1.85Q276.37-1.85 277.67-2.43 278.97-3 280.37-4.25L280.37-4.25 281.77-2.6Q280.22-1.05 278.5-0.25 276.77 0.55 274.62 0.55L274.62 0.55Q270.27 0.55 267.8-2.88 265.32-6.3 265.32-12.85L265.32-12.85Q265.32-19.5 267.7-23.1 270.07-26.7 274.22-26.7L274.22-26.7Q278.32-26.7 280.47-23.48 282.62-20.25 282.62-14.05L282.62-14.05ZM279.87-14.15L279.87-14.95Q279.87-19.65 278.47-22 277.07-24.35 274.22-24.35L274.22-24.35Q268.57-24.35 268.22-14.15L268.22-14.15 279.87-14.15ZM304.22-26.7Q307.07-26.7 308.65-24.68 310.22-22.65 310.22-19.15L310.22-19.15 310.22 0 307.42 0 307.42-18.8Q307.42-24.4 303.67-24.4L303.67-24.4Q300.12-24.4 297.22-18.75L297.22-18.75 297.22 0 294.42 0 294.42-26.15 296.82-26.15 297.12-21.65Q298.57-24.1 300.22-25.4 301.87-26.7 304.22-26.7L304.22-26.7Z" opacity="1" transform="matrix(1,0,0,1,0,0)" fill="#0c3ed3" class="slogan-text-1" data-fill-palette-color="secondary" id="text-1"></path></svg></g></svg></g></svg></g></svg></g></svg></g></svg></g></svg></g><g><path d="M0 123.6c0-68.262 55.338-123.6 123.6-123.6 39.141 0 74.033 18.194 96.679 46.585l-4.594 0c-22.02-26.301-55.099-43.028-92.085-43.027-66.298 0-120.042 53.745-120.042 120.042 0 66.298 53.745 120.042 120.042 120.042 36.986 0 70.064-16.727 92.085-43.027l4.594 0c-22.647 28.392-57.538 46.585-96.679 46.585-68.262 0-123.6-55.338-123.6-123.6z" fill="#124eec" stroke="transparent" data-fill-palette-color="tertiary"></path></g></svg></g><defs></defs></svg><rect width="395.52" height="247.2" fill="none" stroke="none" visibility="hidden"></rect></g></svg></g></svg>