<?xml version="1.0" encoding="utf-8"?>
<!-- Generator: Adobe Illustrator 24.0.0, SVG Export Plug-In . SVG Version: 6.00 Build 0)  -->
<svg version="1.1" id="Layer_1" xmlns="http://www.w3.org/2000/svg" xmlns:xlink="http://www.w3.org/1999/xlink" x="0px" y="0px"
	 viewBox="0 0 256 256" enable-background="new 0 0 256 256" xml:space="preserve">
<g>
	<g>
		<g>
			
				<rect x="165.974" y="125.782" transform="matrix(0.9644 -0.2645 0.2645 0.9644 -28.4045 49.4624)" fill="#F8AF23" width="6.977" height="8.842"/>
			<g>
				<path fill="#F46275" d="M165.928,134.414l9.114-2.5l1.314,4.791l4.66,2.698l4.522,0.155c1.412,0.048,2.629,1.01,3.003,2.373l0,0
					l-19.113,5.242L165.928,134.414z"/>
				<g>
					<path fill="#3F3679" d="M168.673,144.426l6.541-1.794c0.202-0.055,0.379-0.179,0.5-0.35l2.99-4.216l-1.578-0.913l-2.704,3.818
						l-6.228,1.708L168.673,144.426z"/>
				</g>
				
					<rect x="166.565" y="135.226" transform="matrix(0.9644 -0.2645 0.2645 0.9644 -29.8996 50.1559)" fill="#3F3679" width="9.45" height="1.75"/>
			</g>
		</g>
		<g>
			<path fill="#CECECE" d="M163.115,130.942l-6.487-24.051l-21.093-3.174c-3.576-0.541-6.039-3.873-5.501-7.449
				c0.538-3.576,3.873-6.039,7.449-5.501l25.326,3.81c2.577,0.385,4.67,2.259,5.348,4.77l7.602,28.184L163.115,130.942z"/>
		</g>
		<g>
			<path fill="#63BCE7" d="M185.842,71.27c0.458,0.614,0.778,1.344,0.909,2.152c0.435,2.683-1.388,5.211-4.071,5.646l-25.153,4.075
				c-1.19,0.193-2.409-0.058-3.427-0.704l-13.147-8.352c-2.294-1.457-2.973-4.499-1.515-6.794c1.458-2.294,4.499-2.973,6.794-1.515
				l11.568,7.349l23.305-3.776C182.981,69.046,184.78,69.845,185.842,71.27z"/>
		</g>
		<polygon fill="#F8AF23" points="115.019,134.485 110.469,129.197 117.108,123.485 121.722,128.718 		"/>
		<g>
			<path fill="#CECECE" d="M114.09,122.313l16.871-14.949l-4.47-23.367c-0.679-3.552,1.649-6.982,5.201-7.661
				c3.552-0.68,6.982,1.649,7.662,5.201l5.175,27.054c0.437,2.284-0.37,4.628-2.12,6.159l-19.697,17.421L114.09,122.313z"/>
		</g>
		
			<rect x="141.153" y="48.728" transform="matrix(0.974 0.2264 -0.2264 0.974 16.1133 -31.4071)" fill="#F8AF23" width="7.679" height="11.646"/>
		<path fill="#63BCE7" d="M148.938,92.102l-24.347-5.659l4.22-18.157c1.563-6.723,8.28-10.907,15.003-9.344l0,0
			c6.723,1.563,10.907,8.28,9.344,15.003L148.938,92.102z"/>
		<circle fill="#F8AF23" cx="149.316" cy="44.051" r="11.233"/>
		<g>
			<path fill="#F46275" d="M110.776,127.568l6.164,7.163l-3.766,3.24l-0.441,5.366l1.798,4.152c0.562,1.297,0.214,2.808-0.857,3.73
				h0l-12.926-15.023L110.776,127.568z"/>
			<g>
				<path fill="#3F3679" d="M102.907,134.34l4.424,5.141c0.137,0.159,0.324,0.265,0.531,0.302l5.091,0.895l0.149-1.817l-4.608-0.807
					l-4.212-4.895L102.907,134.34z"/>
			</g>
			
				<rect x="106.824" y="132.261" transform="matrix(0.6522 0.758 -0.758 0.6522 139.7119 -38.2564)" fill="#3F3679" width="9.45" height="1.75"/>
		</g>
		<rect x="202.244" y="31.127" fill="#F46275" width="18.573" height="17.502"/>
		<polygon fill="#F46275" points="239.391,57.379 220.818,57.379 220.818,39.878 239.391,39.878 230.104,48.629 		"/>
		<g>
			<path fill="#63BCE7" d="M141.673,76.021c-2.632,0-4.814-2.082-4.915-4.734c-0.104-2.716,2.015-5.002,4.731-5.106l24.187-0.922
				l9.293-19.679c1.161-2.458,4.095-3.509,6.552-2.349c2.458,1.161,3.51,4.094,2.349,6.552l-10.569,22.382
				c-0.784,1.661-2.428,2.746-4.263,2.817l-27.174,1.036C141.8,76.019,141.736,76.021,141.673,76.021z"/>
		</g>
	</g>
	<rect x="47.894" y="184.041" fill="#CECECE" width="24.632" height="29.859"/>
	<rect x="47.894" y="184.041" fill="#AFAFAF" width="12.632" height="29.859"/>
	<rect x="95.239" y="166.621" fill="#F46275" width="24.632" height="47.28"/>
	<rect x="142.584" y="146.316" fill="#F8AF23" width="24.632" height="67.584"/>
	<rect x="189.929" y="109.606" fill="#63BCE7" width="24.632" height="104.294"/>
	<rect x="201.929" y="109.606" fill="#63E2E7" width="12.632" height="104.294"/>
	<g>
		<g>
			<path fill="#63BCE7" d="M76.293,137.721l-35.305-20.938c-2.665-1.58-3.544-5.022-1.964-7.686c1.58-2.665,5.022-3.544,7.686-1.964
				l35.305,20.938c2.665,1.58,3.544,5.022,1.964,7.687C82.399,138.422,78.958,139.302,76.293,137.721z"/>
		</g>
		<g>
			<path fill="#707070" d="M68.159,183.858c-2.437-0.566-4.491-2.422-5.188-5.007l-6.947-25.757l-22.589-3.399
				c-3.83-0.579-6.467-4.148-5.891-7.977c0.576-3.83,4.148-6.467,7.977-5.891l27.122,4.081c2.759,0.412,5.001,2.419,5.727,5.108
				l8.141,30.183c1.008,3.739-1.205,7.588-4.945,8.596C70.412,184.106,69.247,184.111,68.159,183.858z"/>
		</g>
		<g>
			<path fill="#707070" d="M23.852,192.746c-1.418,0.048-2.863-0.333-4.132-1.183c-3.217-2.155-4.078-6.511-1.923-9.729
				l15.579-23.254l-11.104-22.931c-1.687-3.486-0.23-7.679,3.256-9.367c3.486-1.689,7.679-0.231,9.367,3.255l12.855,26.55
				c1.086,2.241,0.901,4.89-0.485,6.959l-17.816,26.595C28.143,191.589,26.029,192.673,23.852,192.746z"/>
		</g>
		
			<rect x="39.45" y="90.806" transform="matrix(0.974 0.2264 -0.2264 0.974 23.0993 -7.3422)" fill="#F8AF23" width="8.223" height="12.472"/>
		<path fill="#CECECE" d="M47.787,137.257l-26.074-6.06l4.707-20.252c1.57-6.755,8.318-10.958,15.073-9.388l1.613,0.375
			c6.755,1.57,10.958,8.318,9.388,15.073L47.787,137.257z"/>
		<g>
			<path fill="#63BCE7" d="M36.477,108.126l39.656-10.592c2.993-0.799,6.068,0.979,6.867,3.972c0.799,2.993-0.979,6.068-3.972,6.867
				l-39.656,10.592c-2.993,0.799-6.068-0.979-6.867-3.972C31.705,112.001,33.484,108.926,36.477,108.126z"/>
		</g>
		<circle fill="#F8AF23" cx="48.192" cy="85.798" r="12.029"/>
		<g>
			<path fill="#3F3679" d="M27.323,223.373H9.32c-0.829,0-1.5,0.672-1.5,1.5s0.671,1.5,1.5,1.5h18.003c0.829,0,1.5-0.672,1.5-1.5
				S28.152,223.373,27.323,223.373z"/>
			<path fill="#3F3679" d="M246.68,223.373h-18.003c-0.829,0-1.5,0.672-1.5,1.5s0.671,1.5,1.5,1.5h18.003c0.829,0,1.5-0.672,1.5-1.5
				S247.509,223.373,246.68,223.373z"/>
			<path fill="#3F3679" d="M218.479,223.373H37.521c-0.829,0-1.5,0.672-1.5,1.5s0.671,1.5,1.5,1.5h180.959
				c0.829,0,1.5-0.672,1.5-1.5S219.308,223.373,218.479,223.373z"/>
			<path fill="#3F3679" d="M9.32,215.4h38.574h24.631h22.714h24.631h22.713h24.632h22.713h24.631h32.12c0.829,0,1.5-0.672,1.5-1.5
				s-0.671-1.5-1.5-1.5h-30.62V109.606c0-0.828-0.671-1.5-1.5-1.5h-10.816V50.129h15.573v7.25c0,0.828,0.671,1.5,1.5,1.5h18.573
				c0.615,0,1.167-0.375,1.394-0.946c0.227-0.572,0.082-1.224-0.365-1.646l-8.128-7.658l8.128-7.659
				c0.447-0.422,0.592-1.074,0.365-1.646c-0.227-0.571-0.779-0.946-1.394-0.946h-17.073v-7.251c0-0.828-0.671-1.5-1.5-1.5h-18.573
				c-0.829,0-1.5,0.672-1.5,1.5v0.417v17.085v59.478h-10.815c-0.829,0-1.5,0.672-1.5,1.5v29.527
				c-0.782-0.644-1.768-1.038-2.841-1.074l-4.146-0.143l-3.803-2.201l-1.151-4.198c-0.105-0.384-0.359-0.71-0.705-0.907
				c-0.328-0.187-0.713-0.239-1.079-0.153l-0.278-1.012l1.723-0.465c0.384-0.104,0.711-0.355,0.91-0.7s0.251-0.755,0.148-1.139
				l-7.602-28.185c-0.834-3.09-3.415-5.391-6.573-5.862l-12.353-1.859l1.862-8.012l0.755,0.48c1.036,0.658,2.229,1.002,3.442,1.002
				c0.343,0,0.687-0.027,1.029-0.083l25.153-4.075c1.693-0.274,3.178-1.191,4.182-2.583s1.405-3.09,1.131-4.782
				c-0.165-1.016-0.575-1.987-1.188-2.81c-1.438-1.928-3.806-2.892-6.179-2.503l-4.199,0.68l8.56-18.126
				c1.512-3.202,0.137-7.037-3.065-8.55c-3.202-1.512-7.037-0.137-8.549,3.064l-8.904,18.855l-11.537,0.44
				c-0.987-1.747-2.335-3.24-3.925-4.404l0.716-3.08c6.719-0.34,12.086-5.897,12.086-12.7c0-7.021-5.712-12.732-12.732-12.732
				c-7.021,0-12.733,5.712-12.733,12.732c0,3.316,1.285,6.33,3.369,8.598l-1.075,4.627c-1.855,0.282-3.653,0.935-5.294,1.957
				c-3.174,1.977-5.388,5.071-6.234,8.713l-4.22,18.157c-0.188,0.808,0.314,1.613,1.122,1.801l1.529,0.355l3.548,18.547
				l-16.232,14.383c-0.617,0.547-0.677,1.49-0.134,2.11l0.886,1.012l-2.298,1.978c-0.541-0.326-1.248-0.292-1.751,0.142
				l-10.029,8.629c-0.628,0.54-0.699,1.487-0.159,2.115l12.926,15.023c0.26,0.302,0.628,0.487,1.025,0.518
				c0.038,0.003,0.075,0.004,0.112,0.004c0.358,0,0.706-0.128,0.979-0.363c1.578-1.357,2.082-3.553,1.255-5.463l-1.648-3.808
				l0.36-4.379l3.299-2.84c0.612-0.526,0.69-1.438,0.194-2.065l2.302-1.981l1.168,1.335c0.263,0.301,0.634,0.484,1.033,0.51
				c0.032,0.002,0.064,0.003,0.096,0.003c0.365,0,0.719-0.133,0.994-0.376l19.691-17.415c2.143-1.875,3.141-4.775,2.605-7.57
				l-0.295-1.544l9.729,1.464l6.232,23.104c0.181,0.669,0.786,1.109,1.447,1.109c0.129,0,0.261-0.017,0.392-0.052l1.288-0.347
				l0.309,1.127c-0.525,0.348-0.797,1-0.622,1.641l2.744,10.006c-0.003,0-0.007-0.001-0.01-0.001h-24.632
				c-0.829,0-1.5,0.672-1.5,1.5V212.4H121.37v-45.78c0-0.828-0.671-1.5-1.5-1.5H95.239c-0.829,0-1.5,0.672-1.5,1.5v45.78H74.025
				v-28.026c1.273-0.739,2.341-1.795,3.094-3.105c1.134-1.971,1.432-4.265,0.84-6.46l-8.141-30.183
				c-0.882-3.268-3.611-5.702-6.952-6.201l-13.344-2.008l2.62-11.274l23.385,13.869c1.135,0.673,2.382,0.993,3.614,0.993
				c2.43,0,4.801-1.245,6.127-3.482c2-3.372,0.883-7.742-2.488-9.741L62.02,114.469l17.395-4.646
				c3.788-1.013,6.046-4.917,5.034-8.704c-1.012-3.786-4.916-6.046-8.704-5.034l-26.685,7.127c-0.325-0.261-0.656-0.513-0.999-0.742
				l0.738-3.174c7.177-0.321,12.922-6.244,12.922-13.499c0-7.46-6.069-13.529-13.529-13.529s-13.529,6.069-13.529,13.529
				c0,3.544,1.38,6.764,3.618,9.178l-1.126,4.844c-2.082,0.221-4.106,0.897-5.936,2.037c-3.187,1.984-5.411,5.092-6.26,8.749
				l-4.707,20.252c-0.009,0.039-0.04,0.19-0.047,0.229c-0.321,1.78-0.074,3.585,0.717,5.217L31.65,158.46L16.55,181
				c-2.612,3.9-1.565,9.197,2.334,11.81c1.412,0.945,3.04,1.44,4.726,1.44c0.097,0,0.194-0.002,0.292-0.005
				c2.733-0.092,5.272-1.501,6.792-3.77l17.817-26.595c1.675-2.502,1.901-5.739,0.589-8.447l-0.973-2.01l6.704,1.008l6.692,24.81
				c0.335,1.243,0.948,2.356,1.753,3.3H47.894c-0.829,0-1.5,0.672-1.5,1.5V212.4H9.32c-0.829,0-1.5,0.672-1.5,1.5
				S8.491,215.4,9.32,215.4z M235.612,41.378l-6.537,6.159c-0.301,0.283-0.471,0.679-0.471,1.092s0.17,0.809,0.471,1.092
				l6.536,6.158h-13.294v-7.25v-7.251H235.612z M219.317,39.878v7.251h-15.573V32.627h15.573V39.878z M191.429,111.106h21.631V212.4
				h-21.631V111.106z M188.429,212.4h-19.713v-63.912c0.221,0.119,0.465,0.184,0.712,0.184c0.133,0,0.267-0.018,0.397-0.054
				l18.604-5.103V212.4z M175.604,138.004l4.66,2.697c0.213,0.124,0.454,0.192,0.7,0.201l4.522,0.155
				c0.128,0.005,0.252,0.022,0.373,0.053l-15.381,4.219l-2.706-9.865l6.22-1.706l0.917,3.345
				C175.013,137.483,175.263,137.807,175.604,138.004z M181.345,70.831c1.266-0.198,2.528,0.307,3.294,1.335
				c0.33,0.442,0.542,0.946,0.632,1.496c0.146,0.901-0.068,1.807-0.603,2.548c-0.535,0.742-1.326,1.23-2.228,1.377l-25.152,4.075
				c-0.83,0.132-1.675-0.04-2.383-0.489l-1.645-1.045l0.714-3.074l15.119-0.574c2.404-0.091,4.536-1.499,5.563-3.675l0.455-0.964
				L181.345,70.831z M165.733,66.757c0.56-0.021,1.06-0.353,1.299-0.858l9.293-19.679c0.583-1.235,1.816-1.96,3.1-1.96
				c0.489,0,0.985,0.104,1.456,0.327c1.706,0.806,2.439,2.85,1.633,4.556l-10.569,22.381c-0.547,1.159-1.683,1.91-2.964,1.958
				l-27.163,1.037l-0.145,0.002c-1.845,0-3.346-1.445-3.416-3.292c-0.035-0.913,0.288-1.785,0.909-2.455
				c0.622-0.671,1.466-1.059,2.38-1.094L165.733,66.757z M144.153,57.48c-0.721-0.168-1.446-0.261-2.17-0.315l0.548-2.359
				c1.323,0.838,2.806,1.441,4.398,1.745l-0.402,1.729C145.764,57.949,144.974,57.671,144.153,57.48z M149.316,34.318
				c5.367,0,9.732,4.366,9.732,9.732s-4.366,9.732-9.732,9.732s-9.733-4.366-9.733-9.732S143.949,34.318,149.316,34.318z
				 M130.271,68.626c1.373-5.907,7.298-9.591,13.202-8.224c2.463,0.573,4.636,1.993,6.176,3.966l-8.218,0.313
				c-1.714,0.065-3.3,0.794-4.466,2.053c-1.166,1.258-1.772,2.895-1.707,4.608c0.132,3.465,2.949,6.178,6.414,6.178l9.195-0.349
				l-3.052,13.13l-21.425-4.979L130.271,68.626z M112.196,136.836c-0.299,0.257-0.484,0.621-0.517,1.014l-0.441,5.365
				c-0.02,0.246,0.021,0.493,0.119,0.719l1.797,4.152c0.051,0.118,0.088,0.239,0.112,0.361l-10.403-12.091l7.755-6.673l4.207,4.89
				L112.196,136.836z M116.16,131.525l-2.594-3.014l2.255-1.94l2.618,2.994L116.16,131.525z M141.415,113.626l-18.567,16.421
				l-6.647-7.6l15.755-13.961c0.396-0.352,0.578-0.885,0.479-1.405l-3.458-18.079l10.757,2.5l3.322,17.37
				C143.391,110.626,142.765,112.445,141.415,113.626z M158.076,106.5c-0.155-0.575-0.636-1.004-1.225-1.093l-11.742-1.766
				l-2.01-10.511l19.49,2.932c1.98,0.296,3.598,1.739,4.121,3.677l7.211,26.736l-9.748,2.628L158.076,106.5z M171.53,130.226
				l0.28,1.019l-3.835,1.052l-0.284-1.036L171.53,130.226z M144.083,147.815h21.632V212.4h-21.632V147.815z M96.739,168.12h21.631
				v44.28H96.739V168.12z M58.043,115.599l23.208,13.763c1.949,1.156,2.594,3.682,1.438,5.631c-1.157,1.949-3.684,2.594-5.631,1.439
				l-24.203-14.354l1.1-4.733c0.059-0.254,0.104-0.508,0.149-0.761l3.873-1.034C58,115.565,58.019,115.584,58.043,115.599z
				 M76.52,98.983c2.191-0.587,4.447,0.721,5.032,2.91c0.585,2.189-0.721,4.446-2.91,5.031l-39.657,10.592
				c-1.06,0.284-2.167,0.138-3.118-0.413c-0.951-0.55-1.63-1.437-1.913-2.497c-0.585-2.189,0.721-4.446,2.91-5.031L76.52,98.983z
				 M43.446,100.472l-1.613-0.375c-0.532-0.124-1.066-0.207-1.6-0.269l0.623-2.679c1.467,0.951,3.127,1.624,4.91,1.948l-0.455,1.958
				C44.706,100.825,44.088,100.621,43.446,100.472z M48.192,75.269c5.806,0,10.529,4.724,10.529,10.529s-4.724,10.529-10.529,10.529
				s-10.529-4.724-10.529-10.529S42.386,75.269,48.192,75.269z M27.881,111.285c0.668-2.877,2.417-5.321,4.924-6.883
				c2.507-1.561,5.472-2.05,8.348-1.384l1.613,0.375c0.843,0.196,1.646,0.484,2.403,0.858l-9.08,2.425
				c-3.788,1.012-6.046,4.916-5.034,8.703c0.49,1.835,1.665,3.369,3.309,4.32c1.097,0.635,2.314,0.959,3.548,0.959
				c0.616,0,1.235-0.081,1.846-0.244l11.092-2.962l-4.185,18.003l-23.152-5.38L27.881,111.285z M46.018,162.211l-17.816,26.595
				c-0.984,1.469-2.629,2.382-4.401,2.441c-1.16,0.029-2.28-0.283-3.247-0.93c-2.525-1.691-3.203-5.122-1.512-7.647l15.579-23.255
				c0.296-0.442,0.336-1.009,0.104-1.488l-11.104-22.931c-0.298-0.616-0.462-1.271-0.519-1.936l13.331,3.098l9.966,20.583
				C47.249,158.495,47.103,160.591,46.018,162.211z M57.471,152.703c-0.155-0.575-0.636-1.004-1.225-1.093l-9.704-1.459
				l-5.822-12.024l21.701,3.265c2.163,0.323,3.93,1.899,4.5,4.016l8.141,30.183c0.383,1.421,0.19,2.907-0.544,4.184
				c-0.734,1.276-1.921,2.19-3.343,2.573c-0.876,0.235-1.801,0.253-2.678,0.05c-1.986-0.462-3.549-1.97-4.08-3.937L57.471,152.703z
				 M49.394,185.541h21.631V212.4H49.394V185.541z"/>
		</g>
	</g>
</g>
</svg>
