<svg xmlns="http://www.w3.org/2000/svg" version="1.1" xmlns:xlink="http://www.w3.org/1999/xlink" xmlns:svgjs="http://svgjs.dev/svgjs" width="2000" height="1247" viewBox="0 0 2000 1247"><g transform="matrix(1,0,0,1,-1.2121212121212466,0.504858299595071)"><svg viewBox="0 0 396 247" data-background-color="#ffffff" preserveAspectRatio="xMidYMid meet" height="1247" width="2000" xmlns="http://www.w3.org/2000/svg" xmlns:xlink="http://www.w3.org/1999/xlink"><g id="tight-bounds" transform="matrix(1,0,0,1,0.2400000000000091,-0.09999999999999432)"><svg viewBox="0 0 395.52 247.2" height="247.2" width="395.52"><g><svg></svg></g><g><svg viewBox="0 0 395.52 247.2" height="247.2" width="395.52"><g transform="matrix(1,0,0,1,75.54432000000001,86.40453612388524)"><svg viewBox="0 0 244.43135999999996 74.39092775222952" height="74.39092775222952" width="244.43135999999996"><g><svg viewBox="0 0 244.43135999999996 74.39092775222952" height="74.39092775222952" width="244.43135999999996"><g><svg viewBox="0 0 244.43136 74.39092775222953" height="74.39092775222952" width="244.43135999999996"><g><svg viewBox="0 0 244.43136 74.39092775222953" height="74.39092775222953" width="244.43136"><g id="textblocktransform"><svg viewBox="0 0 244.43136 74.39092775222953" height="74.39092775222953" width="244.43136" id="textblock"><g><svg viewBox="0 0 244.43136 44.12074411368736" height="44.12074411368736" width="244.43136"><g transform="matrix(1,0,0,1,0,0)"><svg width="244.43136" viewBox="1.55 -35.6 200.53 36.2" height="44.12074411368736" data-palette-color="#0718c4"><path d="M10.6 0.6L10.6 0.6Q4.45 0.6 1.55-4.65L1.55-4.65 4.55-6.75Q5.65-4.8 7.05-3.93 8.45-3.05 10.2-3.05L10.2-3.05Q12.85-3.05 14.15-4.67 15.45-6.3 15.45-10.05L15.45-10.05 15.45-32.8 19.65-32.8 19.65-9.65Q19.65-7.55 19.13-5.68 18.6-3.8 17.53-2.4 16.45-1 14.73-0.2 13 0.6 10.6 0.6ZM37.55 0.6L37.55 0.6Q35.3 0.6 33.27-0.25 31.25-1.1 29.7-2.73 28.15-4.35 27.22-6.73 26.3-9.1 26.3-12.1L26.3-12.1Q26.3-15.15 27.22-17.53 28.15-19.9 29.7-21.55 31.25-23.2 33.27-24.05 35.3-24.9 37.55-24.9L37.55-24.9Q39.8-24.9 41.82-24.05 43.85-23.2 45.4-21.55 46.95-19.9 47.87-17.53 48.8-15.15 48.8-12.1L48.8-12.1Q48.8-9.1 47.87-6.73 46.95-4.35 45.4-2.73 43.85-1.1 41.82-0.25 39.8 0.6 37.55 0.6ZM37.55-2.8L37.55-2.8Q39.1-2.8 40.4-3.48 41.7-4.15 42.62-5.38 43.55-6.6 44.05-8.3 44.55-10 44.55-12.1L44.55-12.1Q44.55-14.2 44.05-15.93 43.55-17.65 42.62-18.9 41.7-20.15 40.4-20.83 39.1-21.5 37.55-21.5L37.55-21.5Q36-21.5 34.7-20.83 33.4-20.15 32.47-18.9 31.55-17.65 31.05-15.93 30.55-14.2 30.55-12.1L30.55-12.1Q30.55-10 31.05-8.3 31.55-6.6 32.47-5.38 33.4-4.15 34.7-3.48 36-2.8 37.55-2.8ZM65.94 0.6L65.94 0.6Q64.25 0.6 62.42-0.23 60.59-1.05 58.99-2.5L58.99-2.5 58.84-2.5 58.49 0 55.2 0 55.2-35.6 59.3-35.6 59.3-25.9 59.2-21.5Q60.84-22.95 62.8-23.93 64.75-24.9 66.8-24.9L66.8-24.9Q69.14-24.9 70.94-24.03 72.75-23.15 73.97-21.53 75.19-19.9 75.82-17.63 76.44-15.35 76.44-12.55L76.44-12.55Q76.44-9.45 75.59-7 74.75-4.55 73.3-2.85 71.84-1.15 69.94-0.28 68.05 0.6 65.94 0.6ZM65.25-2.85L65.25-2.85Q66.75-2.85 68.02-3.53 69.3-4.2 70.22-5.43 71.14-6.65 71.67-8.45 72.19-10.25 72.19-12.5L72.19-12.5Q72.19-14.5 71.84-16.15 71.5-17.8 70.72-18.98 69.94-20.15 68.72-20.8 67.5-21.45 65.8-21.45L65.8-21.45Q62.84-21.45 59.3-18.15L59.3-18.15 59.3-5.4Q60.89-4 62.47-3.43 64.05-2.85 65.25-2.85ZM101.74 0L83.24 0 83.24-32.8 87.39-32.8 87.39-3.55 101.74-3.55 101.74 0ZM112.74 0.6L112.74 0.6Q109.69 0.6 107.67-1.2 105.64-3 105.64-6.3L105.64-6.3Q105.64-10.3 109.19-12.43 112.74-14.55 120.54-15.4L120.54-15.4Q120.54-16.55 120.32-17.65 120.09-18.75 119.54-19.6 118.99-20.45 118.02-20.98 117.04-21.5 115.54-21.5L115.54-21.5Q113.44-21.5 111.59-20.7 109.74-19.9 108.29-18.9L108.29-18.9 106.69-21.75Q108.39-22.85 110.84-23.88 113.29-24.9 116.24-24.9L116.24-24.9Q120.69-24.9 122.69-22.18 124.69-19.45 124.69-14.9L124.69-14.9 124.69 0 121.29 0 120.94-2.9 120.79-2.9Q119.04-1.45 117.04-0.43 115.04 0.6 112.74 0.6ZM113.94-2.7L113.94-2.7Q115.69-2.7 117.24-3.53 118.79-4.35 120.54-5.95L120.54-5.95 120.54-12.7Q117.49-12.3 115.42-11.75 113.34-11.2 112.07-10.45 110.79-9.7 110.22-8.72 109.64-7.75 109.64-6.6L109.64-6.6Q109.64-4.5 110.89-3.6 112.14-2.7 113.94-2.7ZM143.09 0.6L143.09 0.6Q141.39 0.6 139.56-0.23 137.74-1.05 136.14-2.5L136.14-2.5 135.99-2.5 135.64 0 132.34 0 132.34-35.6 136.44-35.6 136.44-25.9 136.34-21.5Q137.99-22.95 139.94-23.93 141.89-24.9 143.94-24.9L143.94-24.9Q146.29-24.9 148.09-24.03 149.89-23.15 151.11-21.53 152.34-19.9 152.96-17.63 153.59-15.35 153.59-12.55L153.59-12.55Q153.59-9.45 152.74-7 151.89-4.55 150.44-2.85 148.99-1.15 147.09-0.28 145.19 0.6 143.09 0.6ZM142.39-2.85L142.39-2.85Q143.89-2.85 145.16-3.53 146.44-4.2 147.36-5.43 148.29-6.65 148.81-8.45 149.34-10.25 149.34-12.5L149.34-12.5Q149.34-14.5 148.99-16.15 148.64-17.8 147.86-18.98 147.09-20.15 145.86-20.8 144.64-21.45 142.94-21.45L142.94-21.45Q139.99-21.45 136.44-18.15L136.44-18.15 136.44-5.4Q138.04-4 139.61-3.43 141.19-2.85 142.39-2.85ZM161.64 0.6L161.64 0.6Q160.39 0.6 159.51-0.28 158.64-1.15 158.64-2.5L158.64-2.5Q158.64-3.95 159.51-4.83 160.39-5.7 161.64-5.7L161.64-5.7Q162.84-5.7 163.71-4.83 164.59-3.95 164.59-2.5L164.59-2.5Q164.59-1.15 163.71-0.28 162.84 0.6 161.64 0.6ZM177.53 0.6L177.53 0.6Q174.48 0.6 172.46-1.2 170.43-3 170.43-6.3L170.43-6.3Q170.43-10.3 173.98-12.43 177.53-14.55 185.33-15.4L185.33-15.4Q185.33-16.55 185.11-17.65 184.88-18.75 184.33-19.6 183.78-20.45 182.81-20.98 181.83-21.5 180.33-21.5L180.33-21.5Q178.23-21.5 176.38-20.7 174.53-19.9 173.08-18.9L173.08-18.9 171.48-21.75Q173.18-22.85 175.63-23.88 178.08-24.9 181.03-24.9L181.03-24.9Q185.48-24.9 187.48-22.18 189.48-19.45 189.48-14.9L189.48-14.9 189.48 0 186.08 0 185.73-2.9 185.58-2.9Q183.83-1.45 181.83-0.43 179.83 0.6 177.53 0.6ZM178.73-2.7L178.73-2.7Q180.48-2.7 182.03-3.53 183.58-4.35 185.33-5.95L185.33-5.95 185.33-12.7Q182.28-12.3 180.21-11.75 178.13-11.2 176.86-10.45 175.58-9.7 175.01-8.72 174.43-7.75 174.43-6.6L174.43-6.6Q174.43-4.5 175.68-3.6 176.93-2.7 178.73-2.7ZM201.23 0L197.13 0 197.13-24.3 201.23-24.3 201.23 0ZM199.23-29.3L199.23-29.3Q198.03-29.3 197.21-30.05 196.38-30.8 196.38-31.95L196.38-31.95Q196.38-33.15 197.21-33.88 198.03-34.6 199.23-34.6L199.23-34.6Q200.43-34.6 201.26-33.88 202.08-33.15 202.08-31.95L202.08-31.95Q202.08-30.8 201.26-30.05 200.43-29.3 199.23-29.3Z" opacity="1" transform="matrix(1,0,0,1,0,0)" fill="#0718c4" class="wordmark-text-0" data-fill-palette-color="primary" id="text-0"></path></svg></g></svg></g><g transform="matrix(1,0,0,1,0,54.536592901070215)"><svg viewBox="0 0 244.43136 19.85433485115931" height="19.85433485115931" width="244.43136"><g transform="matrix(1,0,0,1,0,0)"><svg width="244.43136" viewBox="3 -35.25 443.2 36" height="19.85433485115931" data-palette-color="#0c0e0e"><path d="M10.9-34.55Q17.15-34.55 20.43-31.78 23.7-29 23.7-23.6L23.7-23.6Q23.7-17.85 20.48-15 17.25-12.15 11.35-12.15L11.35-12.15 9.35-12.15 9.35 0 3 0 3-34.55 10.9-34.55ZM11-16.9Q14.25-16.9 15.7-18.4 17.15-19.9 17.15-23.55L17.15-23.55Q17.15-26.85 15.7-28.35 14.25-29.85 11.05-29.85L11.05-29.85 9.35-29.85 9.35-16.9 11-16.9ZM97.38 0L90.53 0 84.43-13.95 83.83-13.95 81.38-13.95 81.38 0 75.03 0 75.03-34.55 83.18-34.55Q95.68-34.55 95.68-24.4L95.68-24.4Q95.68-21.25 94.28-18.82 92.88-16.4 90.08-15.15L90.08-15.15 97.38 0ZM83.48-18.55Q86.43-18.55 87.75-19.95 89.08-21.35 89.08-24.4L89.08-24.4Q89.08-27.25 87.7-28.58 86.33-29.9 83.18-29.9L83.18-29.9 81.38-29.9 81.38-18.55 83.48-18.55ZM148.15-34.55L165.3-34.55 164.65-29.8 154.5-29.8 154.5-19.9 163.35-19.9 163.35-15.2 154.5-15.2 154.5-4.8 165.3-4.8 165.3 0 148.15 0 148.15-34.55ZM226.13-35.25Q229.13-35.25 231.43-34.2 233.73-33.15 235.68-31.05L235.68-31.05 232.73-27.65Q231.18-29.05 229.7-29.75 228.23-30.45 226.58-30.45L226.58-30.45Q224.68-30.45 223.58-29.28 222.48-28.1 222.48-26.2L222.48-26.2Q222.48-24.3 223.63-23.1 224.78-21.9 228.13-20.6L228.13-20.6Q232.43-18.85 234.45-16.5 236.48-14.15 236.48-9.85L236.48-9.85Q236.48-6.9 235.13-4.48 233.78-2.05 231.25-0.65 228.73 0.75 225.38 0.75L225.38 0.75Q221.93 0.75 219.38-0.48 216.83-1.7 214.73-3.95L214.73-3.95 217.93-7.45Q219.73-5.85 221.38-5 223.03-4.15 224.98-4.15L224.98-4.15Q227.28-4.15 228.55-5.58 229.83-7 229.83-9.45L229.83-9.45Q229.83-11.6 228.7-12.98 227.58-14.35 224.53-15.5L224.53-15.5Q219.93-17.35 217.9-19.75 215.88-22.15 215.88-25.75L215.88-25.75Q215.88-28.5 217.2-30.65 218.53-32.8 220.88-34.02 223.23-35.25 226.13-35.25L226.13-35.25ZM310.15 0L303.7 0 302-8.1 293.1-8.1 291.45 0 285.1 0 293.8-34.55 301.5-34.55 310.15 0ZM297.55-29.7L294.1-12.9 301.05-12.9 297.55-29.7ZM360.63-34.55L366.98-34.55 366.98-5.25 378.13-5.25 377.43 0 360.63 0 360.63-34.55ZM429.05-34.55L446.2-34.55 445.55-29.8 435.4-29.8 435.4-19.9 444.25-19.9 444.25-15.2 435.4-15.2 435.4-4.8 446.2-4.8 446.2 0 429.05 0 429.05-34.55Z" opacity="1" transform="matrix(1,0,0,1,0,0)" fill="#0718c4" class="slogan-text-1" data-fill-palette-color="secondary" id="text-1"></path></svg></g></svg></g></svg></g></svg></g></svg></g></svg></g></svg></g><path d="M212.183 80.405L212.183 18.818 2.619 18.818 2.619 228.382 212.183 228.382 212.183 166.795 208.204 166.795 208.204 224.403 6.598 224.403 6.598 22.797 208.204 22.797 208.204 80.405Z" fill="#0718c4" stroke="transparent" data-fill-palette-color="tertiary"></path></svg></g><defs></defs></svg><rect width="395.52" height="247.2" fill="none" stroke="none" visibility="hidden"></rect></g></svg></g></svg>