<svg xmlns="http://www.w3.org/2000/svg" version="1.1" xmlns:xlink="http://www.w3.org/1999/xlink" xmlns:svgjs="http://svgjs.dev/svgjs" width="1000" height="623" viewBox="-100 0 1200 623">
<g transform="matrix(1,0,0,1,-0.6060606060606233,0.2522267206477409)">
<svg viewBox="0 0 396 247"  preserveAspectRatio="xMidYMid meet" height="623" width="1000" xmlns="http://www.w3.org/2000/svg" xmlns:xlink="http://www.w3.org/1999/xlink">
<g id="tight-bounds" transform="matrix(1,0,0,1,0.2400000000000091,-0.09999999999999432)"><svg viewBox="0 0 395.52 247.2" height="247.2" width="395.52"><g><svg></svg></g><g>
<svg viewBox="0 0 395.52 247.2" height="247.2" width="395.52"><g transform="matrix(1,0,0,1,75.54432,94.50294234791187)"><svg viewBox="0 0 244.43135999999998 58.19411530417626" height="58.19411530417626" width="244.43135999999998"><g>
<svg viewBox="0 0 244.43135999999998 58.19411530417626" height="58.19411530417626" width="244.43135999999998"><g>
<svg viewBox="0 0 244.43135999999998 58.19411530417626" height="58.19411530417626" width="244.43135999999998"><g>
<svg viewBox="0 0 244.43135999999998 58.19411530417626" height="58.19411530417626" width="244.43135999999998"><g>
<svg viewBox="0 0 244.43135999999998 58.19411530417626" height="58.19411530417626" width="244.43135999999998"><g>
<svg viewBox="0 0 244.43135999999998 58.19411530417626" height="58.19411530417626" width="244.43135999999998">
<g transform="matrix(1,0,0,1,0,0)">
<svg width="244.43135999999998" viewBox="1.5499999523162842 -35.599998474121094 152.0399932861328 36.19999694824219" height="58.19411530417626" data-palette-color="#0718c4">
<path d="M10.6 0.6L10.6 0.6Q4.45 0.6 1.55-4.65L1.55-4.65 4.55-6.75Q5.65-4.8 7.05-3.93 8.45-3.05 10.2-3.05L10.2-3.05Q12.85-3.05 14.15-4.67 15.45-6.3 15.45-10.05L15.45-10.05 15.45-32.8 19.65-32.8 19.65-9.65Q19.65-7.55 19.13-5.68 18.6-3.8 17.53-2.4 16.45-1 14.73-0.2 13 0.6 10.6 0.6ZM37.55 0.6L37.55 0.6Q35.3 0.6 33.27-0.25 31.25-1.1 29.7-2.73 28.15-4.35 27.22-6.73 26.3-9.1 26.3-12.1L26.3-12.1Q26.3-15.15 27.22-17.53 28.15-19.9 29.7-21.55 31.25-23.2 33.27-24.05 35.3-24.9 37.55-24.9L37.55-24.9Q39.8-24.9 41.82-24.05 43.85-23.2 45.4-21.55 46.95-19.9 47.87-17.53 48.8-15.15 48.8-12.1L48.8-12.1Q48.8-9.1 47.87-6.73 46.95-4.35 45.4-2.73 43.85-1.1 41.82-0.25 39.8 0.6 37.55 0.6ZM37.55-2.8L37.55-2.8Q39.1-2.8 40.4-3.48 41.7-4.15 42.62-5.38 43.55-6.6 44.05-8.3 44.55-10 44.55-12.1L44.55-12.1Q44.55-14.2 44.05-15.93 43.55-17.65 42.62-18.9 41.7-20.15 40.4-20.83 39.1-21.5 37.55-21.5L37.55-21.5Q36-21.5 34.7-20.83 33.4-20.15 32.47-18.9 31.55-17.65 31.05-15.93 30.55-14.2 30.55-12.1L30.55-12.1Q30.55-10 31.05-8.3 31.55-6.6 32.47-5.38 33.4-4.15 34.7-3.48 36-2.8 37.55-2.8ZM65.94 0.6L65.94 0.6Q64.25 0.6 62.42-0.23 60.59-1.05 58.99-2.5L58.99-2.5 58.84-2.5 58.49 0 55.2 0 55.2-35.6 59.3-35.6 59.3-25.9 59.2-21.5Q60.84-22.95 62.8-23.93 64.75-24.9 66.8-24.9L66.8-24.9Q69.14-24.9 70.94-24.03 72.75-23.15 73.97-21.53 75.19-19.9 75.82-17.63 76.44-15.35 76.44-12.55L76.44-12.55Q76.44-9.45 75.59-7 74.75-4.55 73.3-2.85 71.84-1.15 69.94-0.28 68.05 0.6 65.94 0.6ZM65.25-2.85L65.25-2.85Q66.75-2.85 68.02-3.53 69.3-4.2 70.22-5.43 71.14-6.65 71.67-8.45 72.19-10.25 72.19-12.5L72.19-12.5Q72.19-14.5 71.84-16.15 71.5-17.8 70.72-18.98 69.94-20.15 68.72-20.8 67.5-21.45 65.8-21.45L65.8-21.45Q62.84-21.45 59.3-18.15L59.3-18.15 59.3-5.4Q60.89-4 62.47-3.43 64.05-2.85 65.25-2.85ZM101.74 0L83.24 0 83.24-32.8 87.39-32.8 87.39-3.55 101.74-3.55 101.74 0ZM112.74 0.6L112.74 0.6Q109.69 0.6 107.67-1.2 105.64-3 105.64-6.3L105.64-6.3Q105.64-10.3 109.19-12.43 112.74-14.55 120.54-15.4L120.54-15.4Q120.54-16.55 120.32-17.65 120.09-18.75 119.54-19.6 118.99-20.45 118.02-20.98 117.04-21.5 115.54-21.5L115.54-21.5Q113.44-21.5 111.59-20.7 109.74-19.9 108.29-18.9L108.29-18.9 106.69-21.75Q108.39-22.85 110.84-23.88 113.29-24.9 116.24-24.9L116.24-24.9Q120.69-24.9 122.69-22.18 124.69-19.45 124.69-14.9L124.69-14.9 124.69 0 121.29 0 120.94-2.9 120.79-2.9Q119.04-1.45 117.04-0.43 115.04 0.6 112.74 0.6ZM113.94-2.7L113.94-2.7Q115.69-2.7 117.24-3.53 118.79-4.35 120.54-5.95L120.54-5.95 120.54-12.7Q117.49-12.3 115.42-11.75 113.34-11.2 112.07-10.45 110.79-9.7 110.22-8.72 109.64-7.75 109.64-6.6L109.64-6.6Q109.64-4.5 110.89-3.6 112.14-2.7 113.94-2.7ZM143.09 0.6L143.09 0.6Q141.39 0.6 139.56-0.23 137.74-1.05 136.14-2.5L136.14-2.5 135.99-2.5 135.64 0 132.34 0 132.34-35.6 136.44-35.6 136.44-25.9 136.34-21.5Q137.99-22.95 139.94-23.93 141.89-24.9 143.94-24.9L143.94-24.9Q146.29-24.9 148.09-24.03 149.89-23.15 151.11-21.53 152.34-19.9 152.96-17.63 153.59-15.35 153.59-12.55L153.59-12.55Q153.59-9.45 152.74-7 151.89-4.55 150.44-2.85 148.99-1.15 147.09-0.28 145.19 0.6 143.09 0.6ZM142.39-2.85L142.39-2.85Q143.89-2.85 145.16-3.53 146.44-4.2 147.36-5.43 148.29-6.65 148.81-8.45 149.34-10.25 149.34-12.5L149.34-12.5Q149.34-14.5 148.99-16.15 148.64-17.8 147.86-18.98 147.09-20.15 145.86-20.8 144.64-21.45 142.94-21.45L142.94-21.45Q139.99-21.45 136.44-18.15L136.44-18.15 136.44-5.4Q138.04-4 139.61-3.43 141.19-2.85 142.39-2.85Z" opacity="1" transform="matrix(1,0,0,1,0,0)" fill="#0718c4" class="undefined-text-0" data-fill-palette-color="primary" id="text-0"></path></svg></g></svg></g></svg></g></svg></g></svg></g></svg></g></svg></g><path d="M197.248 88.503L197.248 29.455 8.957 29.455 8.957 217.745 197.248 217.745 197.248 158.697 192 158.697 192 212.497 14.205 212.497 14.205 34.703 192 34.703 192 88.503Z" fill="#0718c4" stroke="transparent" data-fill-palette-color="primary"></path></svg></g><defs></defs></svg><rect width="395.52" height="247.2" fill="none" stroke="none" visibility="hidden"></rect></g></svg></g></svg>