<svg xmlns="http://www.w3.org/2000/svg" version="1.1" xmlns:xlink="http://www.w3.org/1999/xlink" xmlns:svgjs="http://svgjs.dev/svgjs" width="2000" height="1247" viewBox="0 0 2000 1247"><g transform="matrix(1,0,0,1,-1.2121212121212466,0.504858299595071)"><svg viewBox="0 0 396 247" data-background-color="#ffffff" preserveAspectRatio="xMidYMid meet" height="1247" width="2000" xmlns="http://www.w3.org/2000/svg" xmlns:xlink="http://www.w3.org/1999/xlink"><g id="tight-bounds" transform="matrix(1,0,0,1,0.2400000000000091,-0.09999999999999432)"><svg viewBox="0 0 395.52 247.2" height="247.2" width="395.52"><g><svg></svg></g><g><svg viewBox="0 0 395.52 247.2" height="247.2" width="395.52"><g transform="matrix(1,0,0,1,75.54432,64.26945692611228)"><svg viewBox="0 0 244.43135999999998 118.66108614777542" height="118.66108614777542" width="244.43135999999998"><g><svg viewBox="0 0 244.43135999999998 118.66108614777542" height="118.66108614777542" width="244.43135999999998"><g><svg viewBox="0 0 244.43135999999998 118.66108614777542" height="118.66108614777542" width="244.43135999999998"><g><svg viewBox="0 0 244.43135999999998 118.66108614777542" height="118.66108614777542" width="244.43135999999998"><g id="textblocktransform"><svg viewBox="0 0 244.43135999999998 118.66108614777542" height="118.66108614777542" width="244.43135999999998" id="textblock"><g><svg viewBox="0 0 244.43135999999998 69.14675465875371" height="69.14675465875371" width="244.43135999999998"><g transform="matrix(1,0,0,1,0,0)"><svg width="244.43135999999998" viewBox="2.6 -37.4 151.64000000000001 42.9" height="69.14675465875371" data-palette-color="#001f3f"><path d="M14.1 5.5L11.1 5.5 11.1 0.55Q8.7 0.3 6.45-0.78 4.2-1.85 2.6-3.3L2.6-3.3 4.5-6.15Q6.1-4.75 8.03-3.78 9.95-2.8 12.25-2.8L12.25-2.8Q15.05-2.8 16.43-4.2 17.8-5.6 17.8-7.95L17.8-7.95Q17.8-9.95 16.78-11.28 15.75-12.6 14.2-13.58 12.65-14.55 10.83-15.4 9-16.25 7.45-17.35 5.9-18.45 4.88-20.03 3.85-21.6 3.85-24.05L3.85-24.05Q3.85-27.4 5.83-29.63 7.8-31.85 11.1-32.35L11.1-32.35 11.1-37.4 14.1-37.4 14.1-32.45Q16.5-32.2 18.18-31.15 19.85-30.1 21.2-28.65L21.2-28.65 19-26.2Q17.6-27.55 16.28-28.3 14.95-29.05 12.9-29.05L12.9-29.05Q10.6-29.05 9.25-27.75 7.9-26.45 7.9-24.25L7.9-24.25Q7.9-22.45 8.93-21.3 9.95-20.15 11.5-19.28 13.05-18.4 14.88-17.57 16.7-16.75 18.25-15.58 19.8-14.4 20.83-12.68 21.85-10.95 21.85-8.25L21.85-8.25Q21.85-4.65 19.78-2.35 17.7-0.05 14.1 0.45L14.1 0.45 14.1 5.5ZM37.9 0L32.95 0 26-32.8 30.3-32.8 33.75-14.95Q34.2-12.25 34.7-9.65 35.2-7.05 35.65-4.35L35.65-4.35 35.85-4.35Q36.4-7.05 37-9.68 37.6-12.3 38.15-14.95L38.15-14.95 42.7-32.8 46.5-32.8 51.05-14.95Q51.65-12.35 52.25-9.7 52.85-7.05 53.45-4.35L53.45-4.35 53.65-4.35Q54.1-7.05 54.55-9.68 55-12.3 55.5-14.95L55.5-14.95 58.95-32.8 62.95-32.8 56.15 0 51.15 0 46.2-19.75Q45.75-21.65 45.37-23.48 45-25.3 44.6-27.2L44.6-27.2 44.4-27.2Q44-25.3 43.57-23.48 43.15-21.65 42.75-19.75L42.75-19.75 37.9 0ZM80.45 0.6L80.45 0.6Q77.35 0.6 74.77-0.6 72.2-1.8 70.35-4.03 68.5-6.25 67.47-9.43 66.45-12.6 66.45-16.55L66.45-16.55Q66.45-20.5 67.47-23.63 68.5-26.75 70.35-28.93 72.2-31.1 74.77-32.25 77.35-33.4 80.45-33.4L80.45-33.4Q83.55-33.4 86.12-32.23 88.7-31.05 90.57-28.88 92.45-26.7 93.47-23.58 94.5-20.45 94.5-16.55L94.5-16.55Q94.5-12.6 93.47-9.43 92.45-6.25 90.57-4.03 88.7-1.8 86.12-0.6 83.55 0.6 80.45 0.6ZM80.45-3.05L80.45-3.05Q82.65-3.05 84.42-4 86.2-4.95 87.47-6.73 88.75-8.5 89.45-10.98 90.15-13.45 90.15-16.55L90.15-16.55Q90.15-19.6 89.45-22.05 88.75-24.5 87.47-26.2 86.2-27.9 84.42-28.83 82.65-29.75 80.45-29.75L80.45-29.75Q78.25-29.75 76.47-28.83 74.7-27.9 73.42-26.2 72.15-24.5 71.45-22.05 70.75-19.6 70.75-16.55L70.75-16.55Q70.75-13.45 71.45-10.98 72.15-8.5 73.42-6.73 74.7-4.95 76.47-4 78.25-3.05 80.45-3.05ZM105.69 0L101.54 0 101.54-32.8 111.79-32.8Q114.29-32.8 116.42-32.33 118.54-31.85 120.07-30.75 121.59-29.65 122.44-27.9 123.29-26.15 123.29-23.6L123.29-23.6Q123.29-19.75 121.29-17.45 119.29-15.15 115.89-14.3L115.89-14.3 124.24 0 119.54 0 111.64-13.85 105.69-13.85 105.69 0ZM105.69-29.45L105.69-17.25 111.19-17.25Q115.04-17.25 117.09-18.82 119.14-20.4 119.14-23.6L119.14-23.6Q119.14-26.85 117.09-28.15 115.04-29.45 111.19-29.45L111.19-29.45 105.69-29.45ZM134.14 0L129.99 0 129.99-32.8 134.14-32.8 134.14-16.35 134.29-16.35 147.94-32.8 152.64-32.8 142.39-20.3 154.24 0 149.59 0 139.79-17.05 134.14-10.4 134.14 0Z" opacity="1" transform="matrix(1,0,0,1,0,0)" fill="#ffffff" class="wordmark-text-0" data-fill-palette-color="primary" id="text-0"></path></svg></g></svg></g><g transform="matrix(1,0,0,1,0,85.47064391157365)"><svg viewBox="0 0 244.43135999999998 33.190442236201775" height="33.190442236201775" width="244.43135999999998"><g transform="matrix(1,0,0,1,0,0)"><svg width="244.43135999999998" viewBox="4.4 -37.15 277.64000000000004 37.699999999999996" height="33.190442236201775" data-palette-color="#0c3ed3"><path d="M23.1 0L19.9 0 12.7-15.45 11.1-15.4 7.25-15.4 7.25 0 4.4 0 4.4-34.25 10.5-34.25Q21.65-34.25 21.65-24.95L21.65-24.95Q21.65-21.6 20.05-19.3 18.45-17 15.45-16L15.45-16 23.1 0ZM10.75-17.8Q14.8-17.8 16.68-19.53 18.55-21.25 18.55-24.95L18.55-24.95Q18.55-28.45 16.7-30.15 14.85-31.85 10.35-31.85L10.35-31.85 7.25-31.85 7.25-17.8 10.75-17.8ZM47.19-14.05Q47.19-12.95 47.09-11.95L47.09-11.95 32.79-11.95Q32.99-6.55 34.66-4.2 36.34-1.85 39.24-1.85L39.24-1.85Q40.94-1.85 42.24-2.43 43.54-3 44.94-4.25L44.94-4.25 46.34-2.6Q44.79-1.05 43.06-0.25 41.34 0.55 39.19 0.55L39.19 0.55Q34.84 0.55 32.36-2.88 29.89-6.3 29.89-12.85L29.89-12.85Q29.89-19.5 32.26-23.1 34.64-26.7 38.79-26.7L38.79-26.7Q42.89-26.7 45.04-23.48 47.19-20.25 47.19-14.05L47.19-14.05ZM44.44-14.15L44.44-14.95Q44.44-19.65 43.04-22 41.64-24.35 38.79-24.35L38.79-24.35Q33.14-24.35 32.79-14.15L32.79-14.15 44.44-14.15ZM78.02-26.15L80.67-26.15 75.52 0 71.77 0 67.22-23.5 62.72 0 59.02 0 53.77-26.15 56.52-26.15 60.92-2.3 65.62-26.15 69.02-26.15 73.62-2.3 78.02-26.15ZM102.91-5Q102.91-3.4 103.33-2.63 103.76-1.85 104.66-1.4L104.66-1.4 104.06 0.55Q102.46 0.15 101.61-0.8 100.76-1.75 100.51-3.55L100.51-3.55Q98.16 0.55 93.96 0.55L93.96 0.55Q90.86 0.55 89.01-1.6 87.16-3.75 87.16-7.25L87.16-7.25Q87.16-11.35 89.63-13.53 92.11-15.7 96.71-15.7L96.71-15.7 100.16-15.7 100.16-18.7Q100.16-21.55 99.03-22.95 97.91-24.35 95.51-24.35L95.51-24.35Q92.76-24.35 89.51-22.95L89.51-22.95 88.71-24.95Q92.46-26.7 95.76-26.7L95.76-26.7Q99.36-26.7 101.13-24.68 102.91-22.65 102.91-18.9L102.91-18.9 102.91-5ZM94.41-1.7Q98.21-1.7 100.16-6.55L100.16-6.55 100.16-13.65 96.96-13.65Q93.46-13.65 91.78-12.1 90.11-10.55 90.11-7.35L90.11-7.35Q90.11-4.6 91.23-3.15 92.36-1.7 94.41-1.7L94.41-1.7ZM123.09-26.7Q123.99-26.7 125.09-26.4L125.09-26.4 124.59-23.8Q123.69-24.05 122.79-24.05L122.79-24.05Q120.64-24.05 119.29-22.18 117.94-20.3 117.09-16.5L117.09-16.5 117.09 0 114.29 0 114.29-26.15 116.69-26.15 116.94-20.9Q117.89-23.85 119.39-25.28 120.89-26.7 123.09-26.7L123.09-26.7ZM145.53-37.15L148.33-36.8 148.33 0 145.88 0 145.63-3.8Q143.38 0.55 139.38 0.55L139.38 0.55Q135.48 0.55 133.3-3 131.13-6.55 131.13-12.95L131.13-12.95Q131.13-17.1 132.18-20.23 133.23-23.35 135.15-25.03 137.08-26.7 139.63-26.7L139.63-26.7Q143.28-26.7 145.53-23.3L145.53-23.3 145.53-37.15ZM139.73-1.8Q141.63-1.8 143.03-3 144.43-4.2 145.53-6.5L145.53-6.5 145.53-20.4Q143.28-24.35 140.03-24.35L140.03-24.35Q137.28-24.35 135.68-21.48 134.08-18.6 134.08-13L134.08-13Q134.13-7.4 135.6-4.6 137.08-1.8 139.73-1.8L139.73-1.8ZM183-2.9L184.15-1.1Q182.05 0.55 179.5 0.55L179.5 0.55Q176.95 0.55 175.47-1.05 174-2.65 174-5.35L174-5.35 174-23.85 170.5-23.85 170.5-26.15 174-26.15 174-32.4 176.8-32.75 176.8-26.15 182.3-26.15 181.95-23.85 176.8-23.85 176.8-5.35Q176.8-3.7 177.55-2.78 178.3-1.85 179.8-1.85L179.8-1.85Q181.4-1.85 183-2.9L183-2.9ZM198.84-26.7Q203.29-26.7 205.69-23.28 208.09-19.85 208.09-13.15L208.09-13.15Q208.09-6.6 205.61-3.03 203.14 0.55 198.79 0.55L198.79 0.55Q194.44 0.55 192.01-3 189.59-6.55 189.59-13.05L189.59-13.05Q189.59-19.65 192.04-23.18 194.49-26.7 198.84-26.7L198.84-26.7ZM198.84-24.3Q192.54-24.3 192.54-13.05L192.54-13.05Q192.54-1.8 198.79-1.8L198.79-1.8Q205.14-1.8 205.14-13.15L205.14-13.15Q205.14-18.9 203.54-21.6 201.94-24.3 198.84-24.3L198.84-24.3ZM217.82-36.8L220.62-37.15 220.62 0 217.82 0 217.82-36.8ZM229.82-26.15L232.82-26.15 223.87-14.45 233.72 0 230.57 0 220.87-14.3 229.82-26.15ZM256.76-14.05Q256.76-12.95 256.66-11.95L256.66-11.95 242.36-11.95Q242.56-6.55 244.23-4.2 245.91-1.85 248.81-1.85L248.81-1.85Q250.51-1.85 251.81-2.43 253.11-3 254.51-4.25L254.51-4.25 255.91-2.6Q254.36-1.05 252.63-0.25 250.91 0.55 248.76 0.55L248.76 0.55Q244.41 0.55 241.93-2.88 239.46-6.3 239.46-12.85L239.46-12.85Q239.46-19.5 241.83-23.1 244.21-26.7 248.36-26.7L248.36-26.7Q252.46-26.7 254.61-23.48 256.76-20.25 256.76-14.05L256.76-14.05ZM254.01-14.15L254.01-14.95Q254.01-19.65 252.61-22 251.21-24.35 248.36-24.35L248.36-24.35Q242.71-24.35 242.36-14.15L242.36-14.15 254.01-14.15ZM276.04-26.7Q278.89-26.7 280.47-24.68 282.04-22.65 282.04-19.15L282.04-19.15 282.04 0 279.24 0 279.24-18.8Q279.24-24.4 275.49-24.4L275.49-24.4Q271.94-24.4 269.04-18.75L269.04-18.75 269.04 0 266.24 0 266.24-26.15 268.64-26.15 268.94-21.65Q270.39-24.1 272.04-25.4 273.69-26.7 276.04-26.7L276.04-26.7Z" opacity="1" transform="matrix(1,0,0,1,0,0)" fill="#ffffff" class="slogan-text-1" data-fill-palette-color="secondary" id="text-1"></path></svg></g></svg></g></svg></g></svg></g></svg></g></svg></g></svg></g><g><path d="M0 123.6c0-68.262 55.338-123.6 123.6-123.6 43.358 0 81.502 22.325 103.563 56.108l-3.745 0c-21.663-31.976-58.286-52.99-99.818-52.99-66.54 0-120.482 53.942-120.482 120.482 0 66.54 53.942 120.482 120.482 120.482 41.532 0 78.155-21.014 99.818-52.99h3.745c-22.061 33.782-60.205 56.108-103.563 56.108-68.262 0-123.6-55.338-123.6-123.6z" fill="#ffffff" stroke="transparent" data-fill-palette-color="tertiary"></path></g></svg></g><defs></defs></svg><rect width="395.52" height="247.2" fill="none" stroke="none" visibility="hidden"></rect></g></svg></g></svg>